<svg xmlns="http://www.w3.org/2000/svg" xmlns:xlink="http://www.w3.org/1999/xlink" width="500" zoomAndPan="magnify" viewBox="0 0 375 374.999991" height="500" preserveAspectRatio="xMidYMid meet" version="1.0"><defs><clipPath id="105fc2c2d8"><path d="M 50 37.5 L 336.4375 37.5 L 336.4375 326.25 L 50 326.25 Z M 50 37.5 " clip-rule="nonzero"/></clipPath></defs><g clip-path="url(#105fc2c2d8)"><path fill="#000000" d="M 335.855469 257.339844 L 317.746094 217 C 302.117188 182.238281 305.023438 142.261719 325.4375 110.113281 L 326.042969 109.203125 C 326.40625 108.59375 326.527344 107.808594 326.285156 107.140625 C 326.042969 106.472656 325.496094 105.867188 324.832031 105.625 L 301.816406 96.949219 C 293.335938 93.792969 287.640625 85.542969 287.640625 76.503906 L 287.640625 73.898438 C 287.640625 72.5625 286.550781 71.46875 285.21875 71.46875 L 273.105469 71.46875 L 273.105469 61.523438 C 278.617188 60.371094 282.796875 55.515625 282.796875 49.632812 C 282.796875 42.960938 277.34375 37.5 270.683594 37.5 C 264.019531 37.5 258.570312 42.960938 258.570312 49.632812 C 258.570312 55.515625 262.75 60.371094 268.261719 61.523438 L 268.261719 71.46875 L 256.148438 71.46875 C 254.8125 71.46875 253.722656 72.5625 253.722656 73.898438 L 253.722656 76.503906 C 253.722656 85.542969 248.03125 93.792969 239.550781 96.949219 L 231.917969 99.800781 L 224.289062 96.949219 C 215.808594 93.792969 210.113281 85.542969 210.113281 76.503906 L 210.113281 73.898438 C 210.113281 72.5625 209.023438 71.46875 207.691406 71.46875 L 195.578125 71.46875 L 195.578125 61.523438 C 201.089844 60.371094 205.269531 55.515625 205.269531 49.632812 C 205.269531 42.960938 199.816406 37.5 193.15625 37.5 C 186.492188 37.5 181.042969 42.960938 181.042969 49.632812 C 181.042969 55.515625 185.222656 60.371094 190.734375 61.523438 L 190.734375 71.46875 L 178.621094 71.46875 C 177.285156 71.46875 176.195312 72.5625 176.195312 73.898438 L 176.195312 76.503906 C 176.195312 85.542969 170.503906 93.792969 162.023438 96.949219 L 154.390625 99.800781 L 146.761719 96.949219 C 138.28125 93.792969 132.585938 85.542969 132.585938 76.503906 L 132.585938 73.898438 C 132.585938 72.5625 131.496094 71.46875 130.164062 71.46875 L 118.050781 71.46875 L 118.050781 61.523438 C 123.5625 60.371094 127.742188 55.515625 127.742188 49.632812 C 127.742188 42.960938 122.292969 37.5 115.628906 37.5 C 108.964844 37.5 103.515625 42.960938 103.515625 49.632812 C 103.515625 55.515625 107.695312 60.371094 113.207031 61.523438 L 113.207031 71.46875 L 101.09375 71.46875 C 99.761719 71.46875 98.667969 72.5625 98.667969 73.898438 L 98.667969 76.503906 C 98.667969 85.542969 92.976562 93.792969 84.496094 96.949219 L 61.480469 105.625 C 60.816406 105.867188 60.269531 106.410156 60.027344 107.140625 C 59.785156 107.808594 59.90625 108.59375 60.269531 109.203125 L 60.875 110.113281 C 81.285156 142.261719 84.195312 182.238281 68.566406 217 L 50.457031 257.339844 C 49.972656 258.429688 50.335938 259.765625 51.425781 260.371094 C 68.023438 270.5625 86.675781 276.6875 106 278.207031 L 106 326.25 L 125.378906 326.25 L 125.378906 278.207031 C 135.3125 277.417969 145.066406 275.414062 154.453125 272.320312 C 163.175781 275.234375 172.140625 277.175781 181.101562 278.023438 L 181.101562 326.25 L 185.949219 326.25 L 185.949219 278.386719 C 188.371094 278.507812 190.855469 278.628906 193.277344 278.628906 C 195.699219 278.628906 198.0625 278.570312 200.484375 278.386719 L 200.484375 326.25 L 205.328125 326.25 L 205.328125 278.023438 C 214.355469 277.113281 223.320312 275.234375 232.039062 272.320312 C 241.550781 275.476562 251.300781 277.476562 261.050781 278.265625 L 261.050781 326.25 L 280.433594 326.25 L 280.433594 278.265625 C 299.511719 276.75 318.230469 270.746094 335.007812 260.371094 C 335.976562 259.765625 336.398438 258.429688 335.855469 257.339844 Z M 115.628906 273.71875 C 94.550781 273.71875 73.898438 268.074219 55.726562 257.339844 L 72.988281 218.9375 C 88.980469 183.269531 86.375 142.382812 65.964844 109.082031 L 84.558594 102.105469 L 98.667969 229.433594 L 103.515625 228.886719 L 89.222656 100.164062 C 91.339844 99.011719 93.339844 97.617188 95.035156 95.976562 L 95.339844 97.675781 C 97.640625 111.445312 104.058594 124.003906 113.933594 133.890625 C 114.417969 134.375 115.023438 134.621094 115.628906 134.621094 C 116.234375 134.621094 116.839844 134.375 117.324219 133.890625 C 127.195312 124.003906 133.617188 111.507812 135.917969 97.675781 L 136.222656 95.976562 C 136.644531 96.34375 137.070312 96.765625 137.492188 97.128906 L 132.585938 161.066406 L 137.433594 161.433594 L 142.15625 100.164062 C 143.066406 100.648438 144.035156 101.074219 145.066406 101.4375 L 157.480469 106.109375 L 156.089844 127.460938 C 144.519531 156.699219 145.066406 189.578125 158.269531 218.878906 L 175.53125 257.277344 C 157.359375 268.074219 136.707031 273.71875 115.628906 273.71875 Z M 154.390625 189.761719 C 152.210938 177.082031 152.210938 164.160156 154.390625 151.542969 C 156.511719 164.160156 156.511719 177.144531 154.390625 189.761719 Z M 193.15625 123.03125 C 190.308594 110.960938 185.039062 99.496094 177.652344 89.546875 C 179.832031 85.664062 181.042969 81.175781 181.042969 76.566406 L 181.042969 76.324219 L 205.269531 76.324219 L 205.269531 76.503906 C 205.269531 81.175781 206.480469 85.605469 208.660156 89.488281 C 201.273438 99.496094 196.003906 110.960938 193.15625 123.03125 Z M 276.074219 115.570312 C 282.007812 109.625 286.792969 102.589844 290.125 94.886719 C 292.003906 96.828125 294.183594 98.527344 296.546875 99.859375 L 280.617188 147.722656 L 273.289062 118.300781 Z M 251.179688 94.886719 C 254.511719 102.589844 259.355469 109.625 265.230469 115.570312 L 267.957031 118.300781 L 260.628906 147.722656 L 244.699219 99.859375 C 247.183594 98.527344 249.300781 96.886719 251.179688 94.886719 Z M 231.917969 189.699219 C 229.738281 177.023438 229.738281 164.160156 231.917969 151.605469 C 234.039062 164.222656 234.039062 177.082031 231.917969 189.699219 Z M 239.429688 269.53125 C 245.609375 266.984375 251.605469 263.949219 257.417969 260.371094 C 258.449219 259.703125 258.871094 258.429688 258.386719 257.339844 L 240.277344 217 C 237.914062 211.78125 235.976562 206.382812 234.464844 200.921875 C 239.734375 181.148438 239.734375 160.21875 234.464844 140.441406 C 236.886719 131.769531 240.339844 123.398438 244.820312 115.390625 L 258.75 157.1875 C 259.054688 158.15625 260.023438 158.824219 261.050781 158.824219 C 261.113281 158.824219 261.113281 158.824219 261.171875 158.824219 C 262.265625 158.761719 263.171875 158.035156 263.414062 157.003906 L 270.742188 127.582031 L 278.070312 157.003906 C 278.316406 158.035156 279.285156 158.824219 280.3125 158.824219 C 280.375 158.824219 280.375 158.824219 280.433594 158.824219 C 281.464844 158.824219 282.371094 158.15625 282.734375 157.1875 L 301.148438 101.863281 L 320.347656 109.082031 C 299.9375 142.324219 297.332031 183.269531 313.324219 218.9375 L 330.585938 257.339844 C 302.964844 273.71875 270.199219 278.023438 239.429688 269.53125 Z M 239.429688 269.53125 " fill-opacity="1" fill-rule="nonzero"/></g></svg>