<svg xmlns="http://www.w3.org/2000/svg" xmlns:xlink="http://www.w3.org/1999/xlink" width="500" zoomAndPan="magnify" viewBox="0 0 375 374.999991" height="500" preserveAspectRatio="xMidYMid meet" version="1.0"><defs><clipPath id="449278ed30"><path d="M 42.007812 37.5 L 337.507812 37.5 L 337.507812 271 L 42.007812 271 Z M 42.007812 37.5 " clip-rule="nonzero"/></clipPath></defs><path fill="#000000" d="M 299.785156 239.773438 L 299.785156 306.769531 C 307.101562 304.175781 312.359375 297.1875 312.359375 288.988281 L 312.359375 257.554688 C 312.359375 249.355469 307.101562 242.367188 299.785156 239.773438 Z M 299.785156 239.773438 " fill-opacity="1" fill-rule="nonzero"/><path fill="#000000" d="M 274.632812 213.542969 L 255.773438 213.542969 C 248.839844 213.542969 243.199219 219.183594 243.199219 226.117188 L 243.199219 320.425781 C 243.199219 327.359375 248.839844 333 255.773438 333 L 274.632812 333 C 281.566406 333 287.207031 327.359375 287.207031 320.425781 L 287.207031 226.117188 C 287.207031 219.183594 281.566406 213.542969 274.632812 213.542969 Z M 274.632812 213.542969 " fill-opacity="1" fill-rule="nonzero"/><path fill="#000000" d="M 67.15625 257.554688 L 67.15625 288.988281 C 67.15625 297.183594 72.414062 304.171875 79.730469 306.769531 L 79.730469 239.773438 C 72.414062 242.367188 67.15625 249.355469 67.15625 257.554688 Z M 67.15625 257.554688 " fill-opacity="1" fill-rule="nonzero"/><path fill="#000000" d="M 123.742188 213.542969 L 104.878906 213.542969 C 97.945312 213.542969 92.304688 219.183594 92.304688 226.117188 L 92.304688 320.425781 C 92.304688 327.359375 97.945312 333 104.878906 333 L 123.742188 333 C 130.675781 333 136.316406 327.359375 136.316406 320.425781 L 136.316406 226.117188 C 136.316406 219.183594 130.675781 213.542969 123.742188 213.542969 Z M 123.742188 213.542969 " fill-opacity="1" fill-rule="nonzero"/><path fill="#000000" d="M 271.480469 93.941406 C 224.890625 52.203125 154.601562 52.21875 108.035156 93.941406 C 114.417969 98.003906 122.550781 97.789062 128.753906 93.644531 C 165.433594 69.117188 213.941406 69.023438 250.761719 93.644531 C 256.953125 97.777344 265.089844 98.011719 271.480469 93.941406 Z M 271.480469 93.941406 " fill-opacity="1" fill-rule="nonzero"/><g clip-path="url(#449278ed30)"><path fill="#000000" d="M 189.757812 37.5 C 108.289062 37.5 42.007812 103.78125 42.007812 185.25 L 42.007812 257.554688 C 42.007812 264.488281 47.648438 270.128906 54.582031 270.128906 C 54.582031 257.855469 54.582031 196.222656 54.582031 185.25 C 54.582031 110.542969 115.039062 50.074219 189.757812 50.074219 C 264.464844 50.074219 324.933594 110.53125 324.933594 185.25 C 324.933594 197.652344 324.933594 259.339844 324.933594 270.128906 C 331.867188 270.128906 337.507812 264.488281 337.507812 257.554688 L 337.507812 185.25 C 337.507812 103.78125 271.226562 37.5 189.757812 37.5 Z M 189.757812 37.5 " fill-opacity="1" fill-rule="nonzero"/></g></svg>