<svg xmlns="http://www.w3.org/2000/svg" xmlns:xlink="http://www.w3.org/1999/xlink" width="500" zoomAndPan="magnify" viewBox="0 0 375 374.999991" height="500" preserveAspectRatio="xMidYMid meet" version="1.0"><defs><clipPath id="953f0a48a4"><path d="M 38 66 L 337.5 66 L 337.5 309 L 38 309 Z M 38 66 " clip-rule="nonzero"/></clipPath></defs><g clip-path="url(#953f0a48a4)"><path fill="#100f0d" d="M 337.441406 231.5 C 337.453125 231.804688 337.433594 232.105469 337.382812 232.402344 C 337.332031 232.703125 337.253906 232.992188 337.144531 233.277344 C 337.039062 233.558594 336.902344 233.828125 336.738281 234.085938 C 336.578125 234.339844 336.390625 234.578125 336.179688 234.796875 C 335.96875 235.015625 335.738281 235.207031 335.488281 235.378906 C 335.242188 235.550781 334.976562 235.699219 334.695312 235.816406 C 334.417969 235.933594 334.128906 236.023438 333.832031 236.085938 C 333.535156 236.144531 333.238281 236.175781 332.933594 236.175781 C 332.628906 236.175781 332.332031 236.144531 332.035156 236.085938 C 331.738281 236.023438 331.449219 235.933594 331.171875 235.816406 C 330.890625 235.699219 330.625 235.550781 330.378906 235.378906 C 330.128906 235.207031 329.898438 235.015625 329.6875 234.796875 C 329.476562 234.578125 329.289062 234.339844 329.128906 234.085938 C 328.964844 233.828125 328.828125 233.558594 328.722656 233.277344 C 328.613281 232.992188 328.535156 232.703125 328.484375 232.402344 C 328.433594 232.105469 328.414062 231.804688 328.425781 231.5 C 328.425781 211.117188 324.332031 192.660156 316.261719 176.640625 C 312.992188 170.183594 309.105469 164.125 304.601562 158.460938 C 300.09375 152.800781 295.066406 147.652344 289.507812 143.015625 C 279.367188 134.523438 268.132812 127.878906 255.808594 123.082031 L 255.808594 145.316406 C 255.804688 145.886719 255.703125 146.433594 255.492188 146.964844 C 255.285156 147.496094 254.984375 147.96875 254.597656 148.382812 C 254.207031 148.800781 253.757812 149.128906 253.242188 149.375 C 252.730469 149.621094 252.1875 149.761719 251.621094 149.800781 L 239.46875 150.71875 C 237.867188 150.835938 236.285156 151.078125 234.71875 151.445312 C 233.15625 151.8125 231.632812 152.300781 230.148438 152.910156 C 228.660156 153.519531 227.234375 154.242188 225.863281 155.082031 C 224.492188 155.917969 223.195312 156.855469 221.972656 157.898438 C 220.753906 158.941406 219.621094 160.074219 218.578125 161.292969 C 217.539062 162.515625 216.597656 163.8125 215.761719 165.183594 C 214.925781 166.554688 214.203125 167.984375 213.59375 169.46875 C 212.984375 170.957031 212.496094 172.480469 212.128906 174.042969 L 210.675781 180.160156 C 210.453125 181.105469 210.164062 182.03125 209.804688 182.933594 C 209.445312 183.835938 209.019531 184.707031 208.527344 185.542969 C 208.039062 186.382812 207.488281 187.179688 206.878906 187.933594 C 206.265625 188.691406 205.605469 189.398438 204.886719 190.054688 C 204.171875 190.707031 203.410156 191.308594 202.605469 191.847656 C 201.796875 192.390625 200.957031 192.871094 200.078125 193.285156 C 199.199219 193.699219 198.296875 194.046875 197.363281 194.328125 C 196.433594 194.605469 195.488281 194.816406 194.527344 194.953125 L 187.558594 195.976562 C 186.636719 196.101562 185.902344 196.542969 185.351562 197.296875 C 184.808594 198.042969 184.609375 198.871094 184.753906 199.785156 L 188.007812 220.394531 C 188.15625 221.355469 188.386719 222.296875 188.703125 223.21875 C 189.019531 224.136719 189.414062 225.023438 189.886719 225.871094 C 190.363281 226.722656 190.90625 227.523438 191.523438 228.277344 C 192.136719 229.03125 192.816406 229.722656 193.554688 230.355469 C 194.296875 230.984375 195.085938 231.546875 195.925781 232.039062 C 196.765625 232.53125 197.640625 232.945312 198.554688 233.277344 C 199.46875 233.613281 200.402344 233.867188 201.363281 234.035156 C 202.320312 234.203125 203.285156 234.285156 204.257812 234.28125 L 211.933594 234.28125 C 212.960938 234.285156 213.988281 234.335938 215.011719 234.4375 C 216.035156 234.539062 217.050781 234.6875 218.058594 234.890625 C 219.070312 235.09375 220.066406 235.34375 221.050781 235.640625 C 222.035156 235.941406 223 236.289062 223.953125 236.679688 C 224.902344 237.074219 225.832031 237.515625 226.738281 238 C 227.644531 238.484375 228.527344 239.015625 229.382812 239.585938 C 230.238281 240.15625 231.0625 240.769531 231.859375 241.421875 C 232.652344 242.074219 233.414062 242.765625 234.144531 243.492188 C 234.871094 244.21875 235.5625 244.980469 236.214844 245.777344 C 236.867188 246.570312 237.480469 247.394531 238.050781 248.25 C 238.625 249.105469 239.152344 249.988281 239.636719 250.894531 C 240.121094 251.800781 240.5625 252.730469 240.957031 253.679688 C 241.351562 254.628906 241.699219 255.597656 242 256.582031 C 242.296875 257.566406 242.546875 258.5625 242.75 259.570312 C 242.953125 260.582031 243.105469 261.597656 243.207031 262.621094 C 243.308594 263.644531 243.359375 264.671875 243.359375 265.699219 L 243.359375 278.257812 C 243.371094 278.5625 243.351562 278.863281 243.304688 279.164062 C 243.253906 279.460938 243.175781 279.753906 243.066406 280.035156 C 242.957031 280.316406 242.824219 280.585938 242.660156 280.84375 C 242.496094 281.097656 242.3125 281.335938 242.101562 281.554688 C 241.890625 281.773438 241.660156 281.96875 241.410156 282.136719 C 241.160156 282.308594 240.898438 282.457031 240.617188 282.574219 C 240.339844 282.691406 240.050781 282.78125 239.753906 282.84375 C 239.457031 282.902344 239.15625 282.933594 238.855469 282.933594 C 238.550781 282.933594 238.25 282.902344 237.953125 282.84375 C 237.65625 282.78125 237.371094 282.691406 237.089844 282.574219 C 236.8125 282.457031 236.546875 282.308594 236.296875 282.136719 C 236.046875 281.96875 235.820312 281.773438 235.609375 281.554688 C 235.398438 281.335938 235.210938 281.097656 235.050781 280.84375 C 234.886719 280.585938 234.75 280.316406 234.644531 280.035156 C 234.535156 279.753906 234.457031 279.460938 234.40625 279.164062 C 234.355469 278.863281 234.335938 278.5625 234.347656 278.257812 L 234.347656 265.699219 C 234.347656 264.964844 234.3125 264.234375 234.238281 263.503906 C 234.164062 262.773438 234.058594 262.050781 233.914062 261.328125 C 233.769531 260.609375 233.589844 259.898438 233.378906 259.195312 C 233.164062 258.496094 232.917969 257.804688 232.636719 257.128906 C 232.355469 256.449219 232.039062 255.789062 231.695312 255.140625 C 231.347656 254.492188 230.972656 253.863281 230.5625 253.253906 C 230.15625 252.644531 229.71875 252.054688 229.253906 251.488281 C 228.789062 250.921875 228.296875 250.378906 227.777344 249.859375 C 227.257812 249.339844 226.714844 248.847656 226.148438 248.382812 C 225.582031 247.917969 224.992188 247.480469 224.382812 247.074219 C 223.773438 246.664062 223.144531 246.289062 222.496094 245.941406 C 221.851562 245.597656 221.1875 245.28125 220.511719 245 C 219.832031 244.71875 219.140625 244.472656 218.441406 244.257812 C 217.738281 244.046875 217.027344 243.867188 216.308594 243.722656 C 215.589844 243.582031 214.863281 243.472656 214.132812 243.398438 C 213.402344 243.328125 212.671875 243.289062 211.9375 243.289062 L 204.265625 243.289062 C 203.511719 243.292969 202.761719 243.261719 202.015625 243.199219 C 201.265625 243.132812 200.519531 243.039062 199.78125 242.90625 C 199.039062 242.777344 198.308594 242.613281 197.582031 242.417969 C 196.855469 242.222656 196.140625 241.996094 195.433594 241.738281 C 194.730469 241.480469 194.035156 241.191406 193.355469 240.871094 C 192.675781 240.550781 192.011719 240.199219 191.363281 239.820312 C 190.714844 239.441406 190.085938 239.03125 189.472656 238.597656 C 188.859375 238.160156 188.269531 237.699219 187.695312 237.210938 C 187.125 236.722656 186.578125 236.210938 186.050781 235.671875 C 185.523438 235.136719 185.023438 234.578125 184.546875 233.996094 C 184.070312 233.414062 183.621094 232.8125 183.199219 232.191406 C 182.777344 231.570312 182.382812 230.929688 182.019531 230.273438 C 181.652344 229.617188 181.316406 228.945312 181.011719 228.257812 C 180.703125 227.574219 180.429688 226.875 180.1875 226.164062 C 179.941406 225.453125 179.730469 224.734375 179.550781 224.003906 C 179.371094 223.273438 179.222656 222.535156 179.109375 221.792969 L 175.859375 201.167969 C 175.734375 200.359375 175.6875 199.550781 175.71875 198.734375 C 175.75 197.917969 175.863281 197.113281 176.058594 196.320312 C 176.25 195.527344 176.519531 194.757812 176.863281 194.019531 C 177.207031 193.28125 177.621094 192.582031 178.105469 191.921875 C 178.589844 191.265625 179.132812 190.660156 179.738281 190.113281 C 180.339844 189.5625 180.992188 189.078125 181.695312 188.65625 C 182.394531 188.238281 183.128906 187.890625 183.898438 187.617188 C 184.664062 187.339844 185.453125 187.144531 186.261719 187.027344 L 193.234375 186.011719 C 194.277344 185.863281 195.269531 185.5625 196.21875 185.113281 C 197.167969 184.664062 198.03125 184.085938 198.804688 183.375 C 199.582031 182.664062 200.234375 181.855469 200.765625 180.949219 C 201.296875 180.042969 201.679688 179.078125 201.917969 178.054688 L 203.375 171.9375 C 203.847656 169.910156 204.484375 167.9375 205.273438 166.011719 C 206.0625 164.085938 207 162.234375 208.082031 160.457031 C 209.167969 158.683594 210.382812 157.003906 211.734375 155.417969 C 213.082031 153.835938 214.550781 152.367188 216.132812 151.019531 C 217.71875 149.667969 219.398438 148.449219 221.171875 147.367188 C 222.949219 146.285156 224.800781 145.347656 226.726562 144.558594 C 228.652344 143.765625 230.625 143.132812 232.652344 142.65625 C 234.679688 142.179688 236.726562 141.867188 238.804688 141.714844 L 246.792969 141.117188 L 246.792969 116.789062 C 246.792969 116.441406 246.832031 116.101562 246.910156 115.765625 C 246.988281 115.429688 247.105469 115.105469 247.257812 114.792969 C 247.410156 114.484375 247.597656 114.195312 247.816406 113.929688 C 248.035156 113.660156 248.28125 113.421875 248.554688 113.210938 C 248.828125 113 249.125 112.824219 249.4375 112.679688 C 249.753906 112.539062 250.078125 112.433594 250.417969 112.363281 C 250.757812 112.296875 251.097656 112.269531 251.445312 112.277344 C 251.789062 112.289062 252.128906 112.339844 252.464844 112.429688 C 253.335938 112.667969 274.074219 118.347656 295.007812 135.859375 C 301.066406 140.882812 306.554688 146.464844 311.46875 152.609375 C 316.386719 158.753906 320.628906 165.332031 324.199219 172.34375 C 332.984375 189.707031 337.441406 209.605469 337.441406 231.5 Z M 137.726562 116.316406 C 137.410156 115.605469 137.042969 114.921875 136.628906 114.265625 C 136.210938 113.609375 135.75 112.988281 135.242188 112.398438 C 134.734375 111.808594 134.1875 111.261719 133.601562 110.75 C 133.015625 110.242188 132.394531 109.777344 131.742188 109.355469 C 131.085938 108.9375 130.40625 108.566406 129.699219 108.246094 C 128.988281 107.925781 128.261719 107.660156 127.515625 107.445312 C 126.769531 107.230469 126.011719 107.070312 125.238281 106.964844 C 124.46875 106.859375 123.695312 106.8125 122.917969 106.820312 C 122.140625 106.828125 121.371094 106.890625 120.601562 107.011719 C 119.835938 107.132812 119.078125 107.308594 118.335938 107.539062 C 117.59375 107.765625 116.871094 108.050781 116.171875 108.382812 C 115.46875 108.71875 114.796875 109.101562 114.152344 109.535156 C 113.503906 109.96875 112.894531 110.445312 112.320312 110.96875 C 111.742188 111.488281 111.207031 112.050781 110.710938 112.648438 C 110.21875 113.246094 109.769531 113.878906 109.367188 114.542969 C 108.960938 115.207031 108.609375 115.898438 108.308594 116.613281 C 108.191406 116.886719 108.105469 117.167969 108.042969 117.457031 C 107.984375 117.746094 107.953125 118.039062 107.949219 118.335938 C 107.945312 118.632812 107.972656 118.925781 108.027344 119.214844 C 108.085938 119.507812 108.167969 119.789062 108.277344 120.0625 C 108.390625 120.335938 108.527344 120.597656 108.6875 120.84375 C 108.851562 121.09375 109.035156 121.320312 109.246094 121.53125 C 109.453125 121.742188 109.679688 121.929688 109.921875 122.097656 C 110.167969 122.261719 110.425781 122.402344 110.699219 122.519531 C 111.257812 122.757812 111.84375 122.878906 112.453125 122.875 C 112.898438 122.878906 113.335938 122.816406 113.761719 122.691406 C 114.1875 122.566406 114.589844 122.378906 114.960938 122.136719 C 115.335938 121.890625 115.664062 121.597656 115.949219 121.253906 C 116.234375 120.914062 116.464844 120.535156 116.640625 120.125 C 116.90625 119.496094 117.253906 118.914062 117.691406 118.386719 C 118.125 117.859375 118.628906 117.40625 119.199219 117.023438 C 119.765625 116.640625 120.375 116.347656 121.03125 116.148438 C 121.683594 115.945312 122.355469 115.839844 123.039062 115.832031 C 123.722656 115.824219 124.394531 115.914062 125.050781 116.105469 C 125.710938 116.292969 126.328125 116.570312 126.902344 116.941406 C 127.480469 117.308594 127.992188 117.753906 128.4375 118.273438 C 128.882812 118.792969 129.246094 119.363281 129.527344 119.988281 C 129.648438 120.257812 129.792969 120.515625 129.964844 120.753906 C 130.136719 120.996094 130.328125 121.21875 130.542969 121.421875 C 130.757812 121.625 130.992188 121.808594 131.242188 121.964844 C 131.492188 122.121094 131.753906 122.253906 132.03125 122.359375 C 132.308594 122.464844 132.589844 122.542969 132.882812 122.59375 C 133.175781 122.644531 133.46875 122.664062 133.765625 122.65625 C 134.058594 122.648438 134.351562 122.613281 134.640625 122.546875 C 134.929688 122.480469 135.207031 122.386719 135.476562 122.265625 C 135.75 122.144531 136.003906 122 136.246094 121.828125 C 136.488281 121.660156 136.710938 121.464844 136.914062 121.25 C 137.117188 121.035156 137.296875 120.804688 137.457031 120.554688 C 137.613281 120.304688 137.746094 120.039062 137.851562 119.761719 C 137.957031 119.488281 138.035156 119.203125 138.082031 118.910156 C 138.132812 118.621094 138.15625 118.324219 138.148438 118.03125 C 138.136719 117.734375 138.101562 117.441406 138.035156 117.152344 C 137.972656 116.867188 137.878906 116.585938 137.757812 116.316406 Z M 243.425781 180.417969 C 242.851562 179.136719 242.105469 177.964844 241.191406 176.898438 C 240.273438 175.835938 239.222656 174.925781 238.039062 174.167969 C 236.855469 173.410156 235.589844 172.835938 234.238281 172.449219 C 232.890625 172.0625 231.511719 171.875 230.105469 171.890625 C 228.703125 171.90625 227.328125 172.121094 225.988281 172.535156 C 224.644531 172.949219 223.390625 173.550781 222.222656 174.332031 C 221.058594 175.113281 220.027344 176.046875 219.132812 177.128906 C 218.238281 178.210938 217.515625 179.398438 216.96875 180.695312 C 216.839844 180.96875 216.742188 181.253906 216.667969 181.546875 C 216.597656 181.84375 216.558594 182.140625 216.546875 182.445312 C 216.539062 182.746094 216.558594 183.046875 216.609375 183.347656 C 216.65625 183.644531 216.738281 183.933594 216.847656 184.21875 C 216.957031 184.5 217.089844 184.769531 217.253906 185.023438 C 217.417969 185.28125 217.605469 185.515625 217.816406 185.734375 C 218.023438 185.953125 218.253906 186.148438 218.503906 186.316406 C 218.753906 186.488281 219.019531 186.632812 219.296875 186.753906 C 219.578125 186.871094 219.867188 186.960938 220.164062 187.019531 C 220.460938 187.078125 220.757812 187.109375 221.0625 187.109375 C 221.367188 187.109375 221.664062 187.078125 221.960938 187.015625 C 222.257812 186.957031 222.546875 186.867188 222.824219 186.746094 C 223.105469 186.628906 223.367188 186.480469 223.617188 186.308594 C 223.867188 186.136719 224.097656 185.941406 224.304688 185.722656 C 224.515625 185.507812 224.703125 185.269531 224.863281 185.011719 C 225.027344 184.757812 225.160156 184.488281 225.269531 184.203125 C 225.476562 183.71875 225.746094 183.273438 226.082031 182.867188 C 226.417969 182.460938 226.804688 182.109375 227.242188 181.816406 C 227.679688 181.523438 228.152344 181.296875 228.65625 181.140625 C 229.160156 180.984375 229.675781 180.90625 230.203125 180.898438 C 230.730469 180.894531 231.246094 180.964844 231.753906 181.109375 C 232.261719 181.257812 232.738281 181.472656 233.179688 181.753906 C 233.625 182.039062 234.019531 182.382812 234.363281 182.78125 C 234.707031 183.179688 234.988281 183.621094 235.203125 184.101562 C 235.324219 184.371094 235.46875 184.628906 235.640625 184.871094 C 235.8125 185.109375 236.007812 185.332031 236.222656 185.535156 C 236.4375 185.738281 236.667969 185.917969 236.917969 186.078125 C 237.171875 186.234375 237.433594 186.367188 237.710938 186.472656 C 237.988281 186.578125 238.269531 186.652344 238.5625 186.703125 C 238.855469 186.753906 239.148438 186.773438 239.445312 186.765625 C 239.738281 186.757812 240.03125 186.71875 240.320312 186.652344 C 240.609375 186.585938 240.886719 186.492188 241.15625 186.371094 C 241.425781 186.25 241.683594 186.105469 241.925781 185.933594 C 242.164062 185.761719 242.386719 185.570312 242.589844 185.355469 C 242.792969 185.140625 242.972656 184.90625 243.132812 184.65625 C 243.289062 184.40625 243.417969 184.140625 243.523438 183.867188 C 243.628906 183.589844 243.707031 183.304688 243.757812 183.011719 C 243.808594 182.722656 243.828125 182.429688 243.820312 182.132812 C 243.808594 181.835938 243.773438 181.542969 243.707031 181.257812 C 243.640625 180.96875 243.546875 180.6875 243.425781 180.417969 Z M 213.773438 97.453125 C 213.527344 97.617188 213.269531 97.757812 213 97.875 C 212.726562 97.988281 212.445312 98.078125 212.15625 98.136719 C 211.867188 98.195312 211.574219 98.226562 211.277344 98.230469 C 210.980469 98.230469 210.6875 98.207031 210.398438 98.148438 C 210.109375 98.09375 209.824219 98.011719 209.550781 97.898438 C 209.277344 97.789062 209.015625 97.652344 208.769531 97.488281 C 208.523438 97.328125 208.292969 97.140625 208.082031 96.933594 C 207.871094 96.726562 207.683594 96.5 207.519531 96.257812 C 206.402344 94.605469 205.1875 93.03125 203.875 91.535156 C 202.558594 90.042969 201.152344 88.636719 199.660156 87.320312 C 198.164062 86 196.59375 84.785156 194.945312 83.667969 C 193.292969 82.550781 191.582031 81.546875 189.804688 80.648438 C 188.027344 79.75 186.199219 78.96875 184.320312 78.300781 C 182.445312 77.636719 180.53125 77.09375 178.585938 76.671875 C 176.640625 76.25 174.675781 75.953125 172.691406 75.78125 C 170.707031 75.609375 168.71875 75.5625 166.726562 75.644531 L 122.039062 77.363281 C 121.238281 77.394531 120.441406 77.488281 119.652344 77.640625 C 118.867188 77.796875 118.09375 78.007812 117.335938 78.277344 C 116.582031 78.546875 115.847656 78.871094 115.140625 79.25 C 114.433594 79.632812 113.761719 80.0625 113.117188 80.542969 C 112.476562 81.023438 111.871094 81.550781 111.308594 82.125 C 110.746094 82.699219 110.230469 83.308594 109.761719 83.960938 C 109.289062 84.609375 108.871094 85.292969 108.503906 86.007812 C 108.132812 86.71875 107.824219 87.457031 107.566406 88.21875 L 102.300781 104.007812 C 101.632812 106.035156 100.71875 107.949219 99.554688 109.742188 C 98.394531 111.539062 97.027344 113.15625 95.449219 114.597656 C 93.871094 116.039062 92.136719 117.257812 90.246094 118.253906 C 88.355469 119.253906 86.371094 119.992188 84.289062 120.476562 L 76.148438 122.40625 L 76.148438 122.554688 C 76.152344 124.496094 75.96875 126.421875 75.597656 128.328125 C 75.226562 130.238281 74.675781 132.089844 73.941406 133.890625 C 73.207031 135.6875 72.304688 137.398438 71.238281 139.023438 C 70.167969 140.644531 68.953125 142.148438 67.589844 143.535156 C 65.503906 145.675781 63.148438 147.460938 60.523438 148.894531 C 57.898438 150.324219 55.125 151.339844 52.195312 151.9375 L 53.242188 156.722656 C 53.582031 158.242188 54.042969 159.726562 54.632812 161.167969 C 55.222656 162.613281 55.929688 163.996094 56.75 165.320312 C 57.574219 166.644531 58.5 167.890625 59.535156 169.058594 C 60.566406 170.226562 61.691406 171.300781 62.902344 172.277344 C 64.117188 173.253906 65.402344 174.125 66.765625 174.886719 C 68.125 175.648438 69.539062 176.289062 71.007812 176.8125 C 72.476562 177.335938 73.980469 177.730469 75.515625 178 C 77.050781 178.269531 78.597656 178.40625 80.15625 178.414062 L 123.996094 178.414062 C 125.707031 175.203125 127.8125 172.273438 130.304688 169.625 L 130.382812 169.546875 C 146.753906 151.722656 155.046875 132.464844 155.046875 112.242188 C 155.058594 111.953125 155.097656 111.667969 155.160156 111.386719 C 155.226562 111.105469 155.320312 110.832031 155.4375 110.566406 C 155.554688 110.304688 155.695312 110.054688 155.863281 109.816406 C 156.027344 109.582031 156.214844 109.363281 156.425781 109.160156 C 156.632812 108.960938 156.859375 108.78125 157.101562 108.625 C 157.34375 108.464844 157.597656 108.332031 157.867188 108.226562 C 158.136719 108.117188 158.410156 108.035156 158.695312 107.980469 C 158.980469 107.925781 159.265625 107.898438 159.554688 107.898438 C 159.84375 107.898438 160.128906 107.925781 160.414062 107.980469 C 160.699219 108.035156 160.972656 108.117188 161.242188 108.226562 C 161.511719 108.332031 161.765625 108.464844 162.007812 108.625 C 162.25 108.78125 162.476562 108.960938 162.683594 109.160156 C 162.894531 109.363281 163.078125 109.582031 163.246094 109.816406 C 163.414062 110.054688 163.554688 110.304688 163.671875 110.566406 C 163.789062 110.832031 163.882812 111.105469 163.945312 111.386719 C 164.011719 111.667969 164.050781 111.953125 164.0625 112.242188 C 164.0625 134.816406 154.929688 156.183594 136.914062 175.757812 C 136.871094 175.804688 136.828125 175.851562 136.78125 175.890625 C 134.355469 178.492188 132.421875 181.421875 130.976562 184.671875 C 130.707031 185.277344 130.457031 185.890625 130.226562 186.511719 C 129.996094 187.132812 129.785156 187.757812 129.59375 188.394531 C 129.402344 189.027344 129.230469 189.667969 129.078125 190.3125 C 128.925781 190.957031 128.796875 191.605469 128.683594 192.257812 C 128.574219 192.910156 128.480469 193.566406 128.410156 194.226562 C 128.339844 194.882812 128.289062 195.542969 128.261719 196.207031 C 128.230469 196.867188 128.222656 197.53125 128.234375 198.191406 C 128.246094 198.855469 128.277344 199.515625 128.328125 200.175781 C 128.382812 200.835938 128.453125 201.496094 128.546875 202.148438 C 128.640625 202.804688 128.753906 203.457031 128.890625 204.105469 C 129.023438 204.753906 129.175781 205.398438 129.351562 206.039062 C 129.523438 206.675781 129.71875 207.3125 129.933594 207.9375 C 130.144531 208.566406 130.378906 209.183594 130.628906 209.796875 C 130.882812 210.410156 131.152344 211.015625 131.441406 211.609375 C 131.730469 212.207031 132.039062 212.792969 132.363281 213.367188 C 132.691406 213.945312 133.035156 214.511719 133.394531 215.066406 C 133.757812 215.621094 134.132812 216.164062 134.527344 216.699219 C 134.921875 217.230469 135.335938 217.75 135.761719 218.253906 C 136.1875 218.761719 136.632812 219.253906 137.089844 219.734375 C 137.546875 220.210938 138.019531 220.675781 138.503906 221.125 C 138.992188 221.574219 139.492188 222.007812 140.003906 222.425781 C 140.519531 222.847656 141.042969 223.246094 141.582031 223.632812 C 142.121094 224.019531 142.671875 224.386719 143.230469 224.738281 C 143.792969 225.089844 144.367188 225.425781 144.949219 225.742188 C 145.53125 226.058594 146.121094 226.355469 146.722656 226.632812 C 147.320312 226.914062 147.929688 227.175781 148.546875 227.414062 C 149.164062 227.65625 149.789062 227.878906 150.417969 228.082031 C 151.050781 228.285156 151.683594 228.46875 152.328125 228.632812 C 152.96875 228.792969 153.617188 228.9375 154.265625 229.058594 C 154.917969 229.183594 155.570312 229.285156 156.230469 229.367188 C 156.886719 229.449219 157.546875 229.511719 158.207031 229.554688 C 158.867188 229.597656 159.527344 229.617188 160.191406 229.617188 C 160.488281 229.617188 160.78125 229.644531 161.070312 229.703125 C 161.363281 229.761719 161.644531 229.847656 161.917969 229.960938 C 162.191406 230.074219 162.449219 230.210938 162.695312 230.378906 C 162.941406 230.542969 163.171875 230.730469 163.378906 230.9375 C 163.589844 231.148438 163.777344 231.375 163.941406 231.621094 C 164.105469 231.867188 164.246094 232.128906 164.359375 232.402344 C 164.472656 232.675781 164.554688 232.957031 164.613281 233.246094 C 164.671875 233.539062 164.699219 233.832031 164.699219 234.125 C 164.699219 234.421875 164.671875 234.714844 164.613281 235.007812 C 164.554688 235.296875 164.472656 235.578125 164.359375 235.851562 C 164.246094 236.125 164.105469 236.386719 163.941406 236.632812 C 163.777344 236.878906 163.589844 237.105469 163.378906 237.316406 C 163.171875 237.523438 162.941406 237.710938 162.695312 237.875 C 162.449219 238.039062 162.191406 238.179688 161.917969 238.292969 C 161.644531 238.40625 161.363281 238.492188 161.070312 238.550781 C 160.78125 238.609375 160.488281 238.636719 160.191406 238.636719 C 155.3125 238.640625 150.582031 237.796875 146.003906 236.105469 L 146.003906 264.5625 C 146.003906 274.023438 150.191406 289.277344 162.070312 301.128906 C 162.289062 301.335938 162.480469 301.566406 162.65625 301.8125 C 162.828125 302.058594 162.972656 302.320312 163.09375 302.59375 C 163.214844 302.871094 163.304688 303.15625 163.367188 303.449219 C 163.429688 303.742188 163.464844 304.039062 163.46875 304.339844 C 163.472656 304.640625 163.445312 304.941406 163.390625 305.234375 C 163.335938 305.53125 163.25 305.816406 163.136719 306.097656 C 163.023438 306.375 162.882812 306.640625 162.714844 306.890625 C 162.550781 307.140625 162.359375 307.371094 162.148438 307.585938 C 161.933594 307.796875 161.703125 307.988281 161.453125 308.152344 C 161.203125 308.320312 160.9375 308.460938 160.660156 308.574219 C 160.382812 308.6875 160.09375 308.769531 159.796875 308.828125 C 159.503906 308.882812 159.207031 308.910156 158.90625 308.90625 C 158.605469 308.902344 158.304688 308.867188 158.011719 308.804688 C 157.71875 308.742188 157.433594 308.648438 157.15625 308.53125 C 156.882812 308.410156 156.621094 308.261719 156.375 308.089844 C 156.128906 307.917969 155.902344 307.722656 155.695312 307.507812 C 137.890625 289.699219 136.992188 268.628906 136.992188 264.5625 L 136.992188 231.449219 C 135.269531 230.265625 133.648438 228.957031 132.125 227.527344 C 130.601562 226.097656 129.199219 224.558594 127.910156 222.914062 C 126.625 221.269531 125.472656 219.535156 124.449219 217.714844 C 123.425781 215.890625 122.550781 214.003906 121.816406 212.046875 C 121.085938 210.089844 120.503906 208.089844 120.078125 206.046875 C 119.652344 204 119.382812 201.9375 119.273438 199.851562 C 119.164062 197.765625 119.210938 195.683594 119.417969 193.605469 C 119.628906 191.523438 119.992188 189.476562 120.515625 187.453125 L 80.171875 187.453125 C 79.140625 187.445312 78.109375 187.398438 77.082031 187.308594 C 76.050781 187.214844 75.027344 187.082031 74.011719 186.902344 C 72.996094 186.726562 71.984375 186.503906 70.988281 186.242188 C 69.988281 185.980469 69.003906 185.675781 68.03125 185.328125 C 67.054688 184.984375 66.097656 184.597656 65.160156 184.171875 C 64.21875 183.742188 63.296875 183.277344 62.394531 182.773438 C 61.492188 182.269531 60.613281 181.730469 59.757812 181.152344 C 58.902344 180.574219 58.074219 179.960938 57.269531 179.3125 C 56.464844 178.664062 55.6875 177.984375 54.941406 177.269531 C 54.195312 176.558594 53.480469 175.8125 52.792969 175.039062 C 52.109375 174.265625 51.460938 173.464844 50.84375 172.636719 C 50.226562 171.808594 49.644531 170.957031 49.097656 170.078125 C 48.554688 169.203125 48.046875 168.304688 47.578125 167.382812 C 47.109375 166.464844 46.675781 165.527344 46.285156 164.570312 C 45.894531 163.613281 45.546875 162.640625 45.238281 161.65625 C 44.929688 160.671875 44.664062 159.675781 44.4375 158.667969 L 42.351562 149.097656 C 42.351562 149.0625 42.351562 149.019531 42.351562 148.984375 L 38.625 131.992188 C 38.492188 131.367188 38.417969 130.734375 38.40625 130.09375 C 38.394531 129.457031 38.445312 128.820312 38.558594 128.191406 C 38.667969 127.5625 38.839844 126.949219 39.070312 126.351562 C 39.300781 125.753906 39.585938 125.1875 39.925781 124.644531 C 40.269531 124.105469 40.65625 123.601562 41.09375 123.136719 C 41.535156 122.667969 42.011719 122.25 42.53125 121.878906 C 43.050781 121.503906 43.601562 121.183594 44.183594 120.917969 C 44.765625 120.652344 45.367188 120.441406 45.988281 120.292969 L 70.234375 114.546875 L 70.429688 114.496094 L 82.214844 111.703125 C 83.546875 111.394531 84.820312 110.917969 86.03125 110.28125 C 87.242188 109.640625 88.351562 108.859375 89.363281 107.9375 C 90.371094 107.011719 91.25 105.972656 91.992188 104.824219 C 92.738281 103.675781 93.320312 102.449219 93.75 101.148438 L 99.019531 85.359375 C 99.421875 84.167969 99.910156 83.011719 100.484375 81.890625 C 101.058594 80.773438 101.714844 79.703125 102.453125 78.683594 C 103.191406 77.664062 104 76.703125 104.882812 75.808594 C 105.765625 74.910156 106.707031 74.082031 107.714844 73.328125 C 108.722656 72.574219 109.777344 71.898438 110.886719 71.304688 C 111.996094 70.707031 113.144531 70.199219 114.328125 69.777344 C 115.515625 69.355469 116.722656 69.023438 117.960938 68.785156 C 119.195312 68.546875 120.441406 68.402344 121.699219 68.347656 L 166.386719 66.640625 C 168.757812 66.539062 171.125 66.59375 173.488281 66.796875 C 175.851562 67 178.191406 67.355469 180.511719 67.855469 C 182.832031 68.359375 185.109375 69.003906 187.34375 69.796875 C 189.578125 70.589844 191.757812 71.523438 193.875 72.59375 C 195.992188 73.660156 198.03125 74.863281 199.996094 76.191406 C 201.960938 77.523438 203.832031 78.972656 205.613281 80.539062 C 207.390625 82.109375 209.066406 83.785156 210.628906 85.566406 C 212.195312 87.347656 213.644531 89.222656 214.96875 91.191406 C 215.136719 91.433594 215.277344 91.695312 215.390625 91.964844 C 215.507812 92.238281 215.59375 92.519531 215.65625 92.808594 C 215.714844 93.101562 215.746094 93.394531 215.75 93.6875 C 215.75 93.984375 215.722656 94.277344 215.667969 94.570312 C 215.613281 94.859375 215.53125 95.140625 215.417969 95.417969 C 215.308594 95.691406 215.171875 95.953125 215.007812 96.199219 C 214.84375 96.445312 214.660156 96.675781 214.453125 96.886719 C 214.246094 97.097656 214.019531 97.285156 213.773438 97.453125 Z M 67.035156 124.5625 L 48.0625 129.0625 C 47.839844 129.117188 47.664062 129.242188 47.542969 129.4375 C 47.417969 129.632812 47.382812 129.84375 47.429688 130.070312 L 50.273438 143.152344 C 51.371094 142.925781 52.441406 142.613281 53.488281 142.21875 C 54.53125 141.820312 55.539062 141.347656 56.511719 140.789062 C 57.480469 140.234375 58.402344 139.605469 59.269531 138.902344 C 60.140625 138.199219 60.953125 137.433594 61.699219 136.605469 C 62.449219 135.773438 63.128906 134.890625 63.734375 133.949219 C 64.34375 133.011719 64.875 132.03125 65.328125 131.007812 C 65.78125 129.988281 66.152344 128.933594 66.4375 127.855469 C 66.722656 126.773438 66.921875 125.675781 67.035156 124.5625 Z M 67.035156 124.5625 " fill-opacity="1" fill-rule="nonzero"/></g></svg>