<svg xmlns="http://www.w3.org/2000/svg" xmlns:xlink="http://www.w3.org/1999/xlink" width="500" zoomAndPan="magnify" viewBox="0 0 375 374.999991" height="500" preserveAspectRatio="xMidYMid meet" version="1.0"><defs><clipPath id="63d3021434"><path d="M 98 163.871094 L 287 163.871094 L 287 307.328125 L 98 307.328125 Z M 98 163.871094 " clip-rule="nonzero"/></clipPath></defs><g clip-path="url(#63d3021434)"><path fill="#000000" d="M 139.558594 213.609375 C 124.4375 228.859375 91.796875 236.832031 99.230469 276.421875 C 106.8125 316.773438 162.699219 306.367188 191.84375 305.476562 C 207.339844 305.007812 271.089844 316.902344 283.664062 284.882812 C 294.664062 256.871094 276.507812 238.125 249.023438 216.066406 C 224.472656 196.363281 217.496094 163.625 189.039062 163.90625 C 162.390625 164.175781 148.816406 204.269531 139.558594 213.609375 " fill-opacity="1" fill-rule="nonzero"/></g><path fill="#000000" d="M 87.871094 153.542969 C 103.488281 171.140625 106.449219 193.429688 94.492188 203.34375 C 82.535156 213.25 60.1875 207.023438 44.578125 189.433594 C 28.96875 171.839844 26.003906 149.542969 37.953125 139.636719 C 49.914062 129.726562 72.257812 135.957031 87.871094 153.542969 " fill-opacity="1" fill-rule="nonzero"/><path fill="#000000" d="M 163.980469 98.082031 C 171.460938 123.402344 164.421875 147.5625 148.265625 152.03125 C 132.089844 156.515625 112.914062 139.617188 105.433594 114.292969 C 97.941406 88.972656 104.980469 64.820312 121.152344 60.335938 C 137.316406 55.863281 156.492188 72.761719 163.980469 98.082031 " fill-opacity="1" fill-rule="nonzero"/><path fill="#000000" d="M 261.765625 109.015625 C 254.257812 133.804688 235.4375 150.410156 219.742188 146.09375 C 204.046875 141.789062 197.402344 118.199219 204.90625 93.410156 C 212.414062 68.613281 231.230469 52.007812 246.933594 56.316406 C 262.628906 60.621094 269.277344 84.21875 261.765625 109.015625 " fill-opacity="1" fill-rule="nonzero"/><path fill="#000000" d="M 329.566406 188.570312 C 313.15625 207.527344 289.550781 214.554688 276.824219 204.273438 C 264.105469 193.984375 267.085938 170.277344 283.484375 151.316406 C 299.890625 132.355469 323.503906 125.328125 336.234375 135.613281 C 348.960938 145.898438 345.972656 169.605469 329.566406 188.570312 " fill-opacity="1" fill-rule="nonzero"/></svg>