<svg xmlns="http://www.w3.org/2000/svg" xmlns:xlink="http://www.w3.org/1999/xlink" width="500" zoomAndPan="magnify" viewBox="0 0 375 374.999991" height="500" preserveAspectRatio="xMidYMid meet" version="1.0"><defs><clipPath id="2e602a4685"><path d="M 79.6875 112 L 295.6875 112 L 295.6875 337.5 L 79.6875 337.5 Z M 79.6875 112 " clip-rule="nonzero"/></clipPath><clipPath id="5ead79b61f"><path d="M 121 37.5 L 254 37.5 L 254 165 L 121 165 Z M 121 37.5 " clip-rule="nonzero"/></clipPath></defs><path fill="#000000" d="M 159.511719 229.6875 C 146.554688 229.6875 136.035156 217.078125 136.035156 201.5625 C 136.035156 186.046875 146.554688 173.4375 159.511719 173.4375 C 172.472656 173.4375 182.992188 186.046875 182.992188 201.5625 C 182.992188 203.390625 182.851562 205.21875 182.570312 207 C 182.148438 209.53125 179.703125 211.265625 177.167969 210.890625 C 174.632812 210.46875 172.847656 208.078125 173.273438 205.5 C 173.460938 204.234375 173.601562 202.921875 173.601562 201.5625 C 173.601562 191.203125 167.261719 182.8125 159.511719 182.8125 C 151.765625 182.8125 145.425781 191.203125 145.425781 201.5625 C 145.425781 211.921875 151.765625 220.3125 159.511719 220.3125 C 162.097656 220.3125 164.210938 222.421875 164.210938 225 C 164.210938 227.578125 162.097656 229.6875 159.511719 229.6875 Z M 159.511719 229.6875 " fill-opacity="1" fill-rule="nonzero"/><path fill="#000000" d="M 126.644531 253.125 C 118.894531 253.125 112.558594 245.765625 112.558594 236.71875 C 112.558594 227.671875 118.894531 220.3125 126.644531 220.3125 C 134.390625 220.3125 140.730469 227.671875 140.730469 236.71875 C 140.730469 239.296875 138.617188 241.40625 136.035156 241.40625 C 133.453125 241.40625 131.339844 239.296875 131.339844 236.71875 C 131.339844 232.96875 129.132812 229.6875 126.644531 229.6875 C 124.15625 229.6875 121.949219 232.96875 121.949219 236.71875 C 121.949219 240.46875 124.15625 243.75 126.644531 243.75 C 129.132812 243.75 131.339844 245.859375 131.339844 248.4375 C 131.339844 251.015625 129.226562 253.125 126.644531 253.125 Z M 126.644531 253.125 " fill-opacity="1" fill-rule="nonzero"/><path fill="#000000" d="M 215.863281 229.6875 C 202.902344 229.6875 192.382812 217.078125 192.382812 201.5625 C 192.382812 186.046875 202.902344 173.4375 215.863281 173.4375 C 228.820312 173.4375 239.339844 186.046875 239.339844 201.5625 C 239.339844 203.390625 239.199219 205.21875 238.917969 207 C 238.496094 209.53125 236.050781 211.265625 233.515625 210.890625 C 230.980469 210.46875 229.195312 208.078125 229.621094 205.5 C 229.808594 204.234375 229.949219 202.921875 229.949219 201.5625 C 229.949219 191.203125 223.609375 182.8125 215.863281 182.8125 C 208.113281 182.8125 201.773438 191.203125 201.773438 201.5625 C 201.773438 211.921875 208.113281 220.3125 215.863281 220.3125 C 218.445312 220.3125 220.558594 222.421875 220.558594 225 C 220.558594 227.578125 218.445312 229.6875 215.863281 229.6875 Z M 215.863281 229.6875 " fill-opacity="1" fill-rule="nonzero"/><path fill="#000000" d="M 248.730469 248.4375 C 240.984375 248.4375 234.644531 241.078125 234.644531 232.03125 C 234.644531 222.984375 240.984375 215.625 248.730469 215.625 C 256.480469 215.625 262.816406 222.984375 262.816406 232.03125 C 262.816406 234.609375 260.703125 236.71875 258.121094 236.71875 C 255.539062 236.71875 253.425781 234.609375 253.425781 232.03125 C 253.425781 228.28125 251.21875 225 248.730469 225 C 246.242188 225 244.035156 228.28125 244.035156 232.03125 C 244.035156 235.78125 246.242188 239.0625 248.730469 239.0625 C 251.21875 239.0625 253.425781 241.171875 253.425781 243.75 C 253.425781 246.328125 251.3125 248.4375 248.730469 248.4375 Z M 248.730469 248.4375 " fill-opacity="1" fill-rule="nonzero"/><path fill="#000000" d="M 220.558594 314.0625 C 213.136719 314.0625 207.878906 311.4375 203.277344 309.140625 C 198.675781 306.84375 194.355469 304.6875 187.6875 304.6875 C 181.019531 304.6875 176.699219 306.84375 172.097656 309.140625 C 167.496094 311.4375 162.191406 314.0625 154.816406 314.0625 C 141.953125 314.0625 126.644531 308.390625 126.644531 281.25 C 126.644531 242.671875 168.578125 229.6875 187.6875 229.6875 C 206.796875 229.6875 248.730469 242.671875 248.730469 281.25 C 248.730469 308.390625 233.421875 314.0625 220.558594 314.0625 Z M 187.6875 295.3125 C 196.5625 295.3125 202.339844 298.21875 207.457031 300.75 C 211.683594 302.859375 215.34375 304.6875 220.558594 304.6875 C 229.289062 304.6875 239.339844 302.015625 239.339844 281.25 C 239.339844 249.046875 201.492188 239.0625 187.6875 239.0625 C 173.882812 239.0625 136.035156 249.046875 136.035156 281.25 C 136.035156 302.015625 146.085938 304.6875 154.816406 304.6875 C 159.984375 304.6875 163.691406 302.859375 167.917969 300.75 C 173.035156 298.21875 178.8125 295.3125 187.6875 295.3125 Z M 187.6875 295.3125 " fill-opacity="1" fill-rule="nonzero"/><path fill="#000000" d="M 248.730469 121.875 L 145.425781 121.875 C 142.84375 121.875 140.730469 119.765625 140.730469 117.1875 C 140.730469 114.609375 142.84375 112.5 145.425781 112.5 L 248.730469 112.5 C 251.3125 112.5 253.425781 114.609375 253.425781 117.1875 C 253.425781 119.765625 251.3125 121.875 248.730469 121.875 Z M 248.730469 121.875 " fill-opacity="1" fill-rule="nonzero"/><g clip-path="url(#2e602a4685)"><path fill="#000000" d="M 262.816406 337.5 L 112.558594 337.5 C 94.433594 337.5 79.6875 322.78125 79.6875 304.6875 L 79.6875 117.1875 C 79.6875 114.609375 81.800781 112.5 84.382812 112.5 L 126.644531 112.5 C 129.226562 112.5 131.339844 114.609375 131.339844 117.1875 C 131.339844 119.765625 129.226562 121.875 126.644531 121.875 L 89.078125 121.875 L 89.078125 304.6875 C 89.078125 317.625 99.597656 328.125 112.558594 328.125 L 262.816406 328.125 C 275.777344 328.125 286.296875 317.625 286.296875 304.6875 L 286.296875 121.875 L 267.511719 121.875 C 264.929688 121.875 262.816406 119.765625 262.816406 117.1875 C 262.816406 114.609375 264.929688 112.5 267.511719 112.5 L 290.992188 112.5 C 293.574219 112.5 295.6875 114.609375 295.6875 117.1875 L 295.6875 304.6875 C 295.6875 322.78125 280.941406 337.5 262.816406 337.5 Z M 262.816406 337.5 " fill-opacity="1" fill-rule="nonzero"/></g><g clip-path="url(#5ead79b61f)"><path fill="#000000" d="M 248.730469 164.0625 C 246.148438 164.0625 244.035156 161.953125 244.035156 159.375 L 244.035156 103.125 C 244.035156 72.09375 218.773438 46.875 187.6875 46.875 C 156.601562 46.875 131.339844 72.09375 131.339844 103.125 L 131.339844 159.375 C 131.339844 161.953125 129.226562 164.0625 126.644531 164.0625 C 124.0625 164.0625 121.949219 161.953125 121.949219 159.375 L 121.949219 103.125 C 121.949219 66.9375 151.4375 37.5 187.6875 37.5 C 223.9375 37.5 253.425781 66.9375 253.425781 103.125 L 253.425781 159.375 C 253.425781 161.953125 251.3125 164.0625 248.730469 164.0625 Z M 248.730469 164.0625 " fill-opacity="1" fill-rule="nonzero"/></g></svg>