<svg xmlns="http://www.w3.org/2000/svg" xmlns:xlink="http://www.w3.org/1999/xlink" width="500" zoomAndPan="magnify" viewBox="0 0 375 374.999991" height="500" preserveAspectRatio="xMidYMid meet" version="1.0"><path fill="#000000" d="M 236.109375 70.871094 L 143.390625 70.871094 C 137.414062 70.871094 131.984375 73.3125 128.050781 77.246094 C 124.117188 81.179688 121.675781 86.609375 121.675781 92.585938 L 121.675781 277.4375 C 121.675781 283.414062 124.117188 288.84375 128.050781 292.777344 C 131.984375 296.710938 137.414062 299.152344 143.390625 299.152344 L 236.109375 299.152344 C 242.089844 299.152344 247.515625 296.710938 251.453125 292.777344 C 255.382812 288.84375 257.828125 283.414062 257.828125 277.4375 L 257.828125 92.585938 C 257.828125 86.609375 255.382812 81.179688 251.453125 77.246094 C 247.515625 73.3125 242.089844 70.871094 236.109375 70.871094 Z M 180.882812 278.097656 L 198.621094 278.097656 C 201.59375 278.097656 204.023438 280.53125 204.023438 283.503906 C 204.023438 286.476562 201.59375 288.910156 198.621094 288.910156 L 180.882812 288.910156 C 177.910156 288.910156 175.476562 286.476562 175.476562 283.503906 C 175.476562 280.53125 177.910156 278.097656 180.882812 278.097656 Z M 167.96875 82.929688 C 169.941406 82.929688 171.539062 84.527344 171.539062 86.496094 C 171.539062 88.46875 169.941406 90.066406 167.96875 90.066406 C 166 90.066406 164.402344 88.46875 164.402344 86.496094 C 164.402344 84.527344 166 82.929688 167.96875 82.929688 Z M 211.53125 90.066406 C 213.5 90.066406 215.097656 88.46875 215.097656 86.496094 C 215.097656 84.527344 213.5 82.929688 211.53125 82.929688 L 178.804688 82.929688 C 176.835938 82.929688 175.238281 84.527344 175.238281 86.496094 C 175.238281 88.46875 176.835938 90.066406 178.804688 90.066406 Z M 132.382812 102.945312 L 247.121094 102.945312 L 247.121094 267.855469 L 132.382812 267.855469 L 132.382812 102.945312 " fill-opacity="1" fill-rule="evenodd"/></svg>