<svg xmlns="http://www.w3.org/2000/svg" xmlns:xlink="http://www.w3.org/1999/xlink" width="500" zoomAndPan="magnify" viewBox="0 0 375 374.999991" height="500" preserveAspectRatio="xMidYMid meet" version="1.0"><defs><clipPath id="f826874b2d"><path d="M 33.179688 63.855469 L 352.679688 63.855469 L 352.679688 303.105469 L 33.179688 303.105469 Z M 33.179688 63.855469 " clip-rule="nonzero"/></clipPath><clipPath id="e795600609"><path d="M 262 133 L 352.679688 133 L 352.679688 303.105469 L 262 303.105469 Z M 262 133 " clip-rule="nonzero"/></clipPath></defs><g clip-path="url(#f826874b2d)"><path fill="#000000" d="M 202.914062 253.261719 L 202.914062 273.199219 L 182.945312 273.199219 L 182.945312 253.261719 Z M 237 293.136719 L 148.855469 293.136719 C 150.921875 287.332031 156.460938 283.167969 162.976562 283.167969 L 222.882812 283.167969 C 229.394531 283.167969 234.933594 287.332031 237 293.136719 Z M 337.703125 63.855469 L 48.15625 63.855469 C 39.886719 63.855469 33.179688 70.550781 33.179688 78.808594 L 33.179688 238.308594 C 33.179688 246.5625 39.886719 253.261719 48.15625 253.261719 L 172.960938 253.261719 L 172.960938 273.199219 L 162.976562 273.199219 C 149.207031 273.199219 138.015625 284.375 138.015625 298.121094 C 138.015625 300.863281 140.257812 303.105469 143.007812 303.105469 L 242.851562 303.105469 C 245.597656 303.105469 247.84375 300.863281 247.84375 298.121094 C 247.84375 284.375 236.648438 273.199219 222.882812 273.199219 L 212.898438 273.199219 L 212.898438 253.261719 L 247.84375 253.261719 C 250.589844 253.261719 252.835938 251.019531 252.835938 248.277344 C 252.835938 245.53125 250.589844 243.292969 247.84375 243.292969 L 48.15625 243.292969 C 45.40625 243.292969 43.164062 241.050781 43.164062 238.308594 L 43.164062 78.808594 C 43.164062 76.0625 45.40625 73.824219 48.15625 73.824219 L 337.703125 73.824219 C 340.449219 73.824219 342.695312 76.0625 342.695312 78.808594 L 342.695312 118.683594 C 342.695312 121.425781 344.9375 123.667969 347.6875 123.667969 C 350.433594 123.667969 352.679688 121.425781 352.679688 118.683594 L 352.679688 78.808594 C 352.679688 70.550781 345.96875 63.855469 337.703125 63.855469 " fill-opacity="1" fill-rule="nonzero"/></g><g clip-path="url(#e795600609)"><path fill="#000000" d="M 277.796875 143.605469 C 275.046875 143.605469 272.804688 145.84375 272.804688 148.589844 L 272.804688 288.152344 C 272.804688 290.894531 275.046875 293.136719 277.796875 293.136719 L 337.703125 293.136719 C 340.449219 293.136719 342.695312 290.894531 342.695312 288.152344 L 342.695312 148.589844 C 342.695312 145.84375 340.449219 143.605469 337.703125 143.605469 Z M 337.703125 303.105469 L 277.796875 303.105469 C 269.527344 303.105469 262.820312 296.40625 262.820312 288.152344 L 262.820312 148.589844 C 262.820312 140.332031 269.527344 133.636719 277.796875 133.636719 L 337.703125 133.636719 C 345.96875 133.636719 352.679688 140.332031 352.679688 148.589844 L 352.679688 288.152344 C 352.679688 296.40625 345.96875 303.105469 337.703125 303.105469 " fill-opacity="1" fill-rule="nonzero"/></g><path fill="#000000" d="M 307.75 223.355469 C 299.480469 223.355469 292.773438 230.050781 292.773438 238.308594 C 292.773438 246.5625 299.480469 253.261719 307.75 253.261719 C 316.015625 253.261719 322.726562 246.5625 322.726562 238.308594 C 322.726562 230.050781 316.015625 223.355469 307.75 223.355469 Z M 307.75 263.230469 C 293.980469 263.230469 282.789062 252.054688 282.789062 238.308594 C 282.789062 224.5625 293.980469 213.386719 307.75 213.386719 C 321.515625 213.386719 332.710938 224.5625 332.710938 238.308594 C 332.710938 252.054688 321.515625 263.230469 307.75 263.230469 " fill-opacity="1" fill-rule="nonzero"/><path fill="#000000" d="M 292.773438 158.558594 C 292.773438 161.300781 290.527344 163.542969 287.78125 163.542969 C 285.03125 163.542969 282.789062 161.300781 282.789062 158.558594 C 282.789062 155.8125 285.03125 153.574219 287.78125 153.574219 C 290.527344 153.574219 292.773438 155.8125 292.773438 158.558594 " fill-opacity="1" fill-rule="nonzero"/><path fill="#000000" d="M 312.742188 158.558594 C 312.742188 161.300781 310.496094 163.542969 307.75 163.542969 C 305 163.542969 302.757812 161.300781 302.757812 158.558594 C 302.757812 155.8125 305 153.574219 307.75 153.574219 C 310.496094 153.574219 312.742188 155.8125 312.742188 158.558594 " fill-opacity="1" fill-rule="nonzero"/><path fill="#000000" d="M 332.710938 158.558594 C 332.710938 161.300781 330.464844 163.542969 327.71875 163.542969 C 324.96875 163.542969 322.726562 161.300781 322.726562 158.558594 C 322.726562 155.8125 324.96875 153.574219 327.71875 153.574219 C 330.464844 153.574219 332.710938 155.8125 332.710938 158.558594 " fill-opacity="1" fill-rule="nonzero"/><path fill="#000000" d="M 292.773438 178.496094 C 292.773438 181.238281 290.527344 183.480469 287.78125 183.480469 C 285.03125 183.480469 282.789062 181.238281 282.789062 178.496094 C 282.789062 175.75 285.03125 173.511719 287.78125 173.511719 C 290.527344 173.511719 292.773438 175.75 292.773438 178.496094 " fill-opacity="1" fill-rule="nonzero"/><path fill="#000000" d="M 312.742188 178.496094 C 312.742188 181.238281 310.496094 183.480469 307.75 183.480469 C 305 183.480469 302.757812 181.238281 302.757812 178.496094 C 302.757812 175.75 305 173.511719 307.75 173.511719 C 310.496094 173.511719 312.742188 175.75 312.742188 178.496094 " fill-opacity="1" fill-rule="nonzero"/><path fill="#000000" d="M 332.710938 178.496094 C 332.710938 181.238281 330.464844 183.480469 327.71875 183.480469 C 324.96875 183.480469 322.726562 181.238281 322.726562 178.496094 C 322.726562 175.75 324.96875 173.511719 327.71875 173.511719 C 330.464844 173.511719 332.710938 175.75 332.710938 178.496094 " fill-opacity="1" fill-rule="nonzero"/><path fill="#000000" d="M 292.773438 198.433594 C 292.773438 201.175781 290.527344 203.417969 287.78125 203.417969 C 285.03125 203.417969 282.789062 201.175781 282.789062 198.433594 C 282.789062 195.6875 285.03125 193.449219 287.78125 193.449219 C 290.527344 193.449219 292.773438 195.6875 292.773438 198.433594 " fill-opacity="1" fill-rule="nonzero"/><path fill="#000000" d="M 312.742188 198.433594 C 312.742188 201.175781 310.496094 203.417969 307.75 203.417969 C 305 203.417969 302.757812 201.175781 302.757812 198.433594 C 302.757812 195.6875 305 193.449219 307.75 193.449219 C 310.496094 193.449219 312.742188 195.6875 312.742188 198.433594 " fill-opacity="1" fill-rule="nonzero"/><path fill="#000000" d="M 332.710938 198.433594 C 332.710938 201.175781 330.464844 203.417969 327.71875 203.417969 C 324.96875 203.417969 322.726562 201.175781 322.726562 198.433594 C 322.726562 195.6875 324.96875 193.449219 327.71875 193.449219 C 330.464844 193.449219 332.710938 195.6875 332.710938 198.433594 " fill-opacity="1" fill-rule="nonzero"/><path fill="#000000" d="M 292.773438 278.183594 C 292.773438 280.925781 290.527344 283.167969 287.78125 283.167969 C 285.03125 283.167969 282.789062 280.925781 282.789062 278.183594 C 282.789062 275.4375 285.03125 273.199219 287.78125 273.199219 C 290.527344 273.199219 292.773438 275.4375 292.773438 278.183594 " fill-opacity="1" fill-rule="nonzero"/><path fill="#000000" d="M 312.742188 278.183594 C 312.742188 280.925781 310.496094 283.167969 307.75 283.167969 C 305 283.167969 302.757812 280.925781 302.757812 278.183594 C 302.757812 275.4375 305 273.199219 307.75 273.199219 C 310.496094 273.199219 312.742188 275.4375 312.742188 278.183594 " fill-opacity="1" fill-rule="nonzero"/><path fill="#000000" d="M 332.710938 278.183594 C 332.710938 280.925781 330.464844 283.167969 327.71875 283.167969 C 324.96875 283.167969 322.726562 280.925781 322.726562 278.183594 C 322.726562 275.4375 324.96875 273.199219 327.71875 273.199219 C 330.464844 273.199219 332.710938 275.4375 332.710938 278.183594 " fill-opacity="1" fill-rule="nonzero"/></svg>