<svg xmlns="http://www.w3.org/2000/svg" xmlns:xlink="http://www.w3.org/1999/xlink" width="500" zoomAndPan="magnify" viewBox="0 0 375 374.999991" height="500" preserveAspectRatio="xMidYMid meet" version="1.0"><defs><clipPath id="63125a1b6d"><path d="M 54.125 37.5 L 320.976562 37.5 L 320.976562 318 L 54.125 318 Z M 54.125 37.5 " clip-rule="nonzero"/></clipPath></defs><path fill="#000000" d="M 223.046875 124.320312 C 267.203125 124.320312 303.117188 159.28125 303.117188 202.238281 C 303.117188 245.195312 267.203125 280.15625 223.046875 280.15625 C 178.898438 280.15625 142.972656 245.195312 142.972656 202.238281 C 142.972656 159.28125 178.898438 124.320312 223.046875 124.320312 Z M 223.046875 284.605469 C 269.652344 284.605469 307.566406 247.65625 307.566406 202.238281 C 307.566406 156.820312 269.652344 119.867188 223.046875 119.867188 C 176.441406 119.867188 138.523438 156.820312 138.523438 202.238281 C 138.523438 247.65625 176.441406 284.605469 223.046875 284.605469 " fill-opacity="1" fill-rule="nonzero"/><path fill="#000000" d="M 223.152344 137.679688 C 259.953125 137.679688 289.890625 166.644531 289.890625 202.238281 C 289.890625 237.832031 259.953125 266.796875 223.152344 266.796875 C 186.347656 266.796875 156.410156 237.832031 156.410156 202.238281 C 156.410156 166.644531 186.347656 137.679688 223.152344 137.679688 Z M 223.152344 271.25 C 262.40625 271.25 294.339844 240.292969 294.339844 202.238281 C 294.339844 164.183594 262.40625 133.226562 223.152344 133.226562 C 183.898438 133.226562 151.960938 164.183594 151.960938 202.238281 C 151.960938 240.292969 183.898438 271.25 223.152344 271.25 " fill-opacity="1" fill-rule="nonzero"/><path fill="#000000" d="M 223.152344 148.738281 C 253.820312 148.738281 278.769531 172.765625 278.769531 202.308594 C 278.769531 231.847656 253.820312 255.882812 223.152344 255.882812 C 192.484375 255.882812 167.53125 231.847656 167.53125 202.308594 C 167.53125 172.765625 192.484375 148.738281 223.152344 148.738281 Z M 223.152344 260.335938 C 256.269531 260.335938 283.21875 234.308594 283.21875 202.308594 C 283.21875 170.316406 256.269531 144.289062 223.152344 144.289062 C 190.03125 144.289062 163.082031 170.316406 163.082031 202.308594 C 163.082031 234.308594 190.03125 260.335938 223.152344 260.335938 " fill-opacity="1" fill-rule="nonzero"/><path fill="#000000" d="M 223.054688 179.976562 C 235.324219 179.976562 245.300781 189.960938 245.300781 202.238281 C 245.300781 214.515625 235.324219 224.5 223.054688 224.5 C 210.792969 224.5 200.816406 214.515625 200.816406 202.238281 C 200.816406 189.960938 210.792969 179.976562 223.054688 179.976562 Z M 223.054688 228.953125 C 237.777344 228.953125 249.75 216.96875 249.75 202.238281 C 249.75 187.507812 237.777344 175.523438 223.054688 175.523438 C 208.34375 175.523438 196.367188 187.507812 196.367188 202.238281 C 196.367188 216.96875 208.34375 228.953125 223.054688 228.953125 " fill-opacity="1" fill-rule="nonzero"/><path fill="#000000" d="M 96.351562 300.191406 C 86.539062 300.191406 78.554688 292.199219 78.554688 282.382812 C 78.554688 272.5625 86.539062 264.570312 96.351562 264.570312 C 106.171875 264.570312 114.148438 272.5625 114.148438 282.382812 C 114.148438 292.199219 106.171875 300.191406 96.351562 300.191406 Z M 96.351562 260.117188 C 84.089844 260.117188 74.105469 270.101562 74.105469 282.382812 C 74.105469 294.660156 84.089844 304.644531 96.351562 304.644531 C 108.621094 304.644531 118.597656 294.660156 118.597656 282.382812 C 118.597656 270.101562 108.621094 260.117188 96.351562 260.117188 " fill-opacity="1" fill-rule="nonzero"/><path fill="#000000" d="M 96.351562 289.058594 C 92.675781 289.058594 89.675781 286.058594 89.675781 282.382812 C 89.675781 278.703125 92.675781 275.703125 96.351562 275.703125 C 100.035156 275.703125 103.023438 278.703125 103.023438 282.382812 C 103.023438 286.058594 100.035156 289.058594 96.351562 289.058594 Z M 96.351562 271.25 C 90.214844 271.25 85.226562 276.242188 85.226562 282.382812 C 85.226562 288.519531 90.214844 293.511719 96.351562 293.511719 C 102.488281 293.511719 107.476562 288.519531 107.476562 282.382812 C 107.476562 276.242188 102.488281 271.25 96.351562 271.25 " fill-opacity="1" fill-rule="nonzero"/><path fill="#000000" d="M 91.902344 110.964844 C 91.902344 109.738281 92.902344 108.738281 94.125 108.738281 L 109.699219 108.738281 C 110.925781 108.738281 111.925781 109.738281 111.925781 110.964844 L 111.925781 135.433594 C 111.925781 136.660156 110.925781 137.660156 109.699219 137.660156 L 94.125 137.660156 C 92.902344 137.660156 91.902344 136.660156 91.902344 135.433594 Z M 94.125 142.113281 L 109.699219 142.113281 C 113.382812 142.113281 116.375 139.121094 116.375 135.433594 L 116.375 110.964844 C 116.375 107.277344 113.382812 104.285156 109.699219 104.285156 L 94.125 104.285156 C 90.449219 104.285156 87.453125 107.277344 87.453125 110.964844 L 87.453125 135.433594 C 87.453125 139.121094 90.449219 142.113281 94.125 142.113281 " fill-opacity="1" fill-rule="nonzero"/><path fill="#000000" d="M 254.210938 90.929688 L 272.007812 90.929688 C 278.140625 90.929688 283.128906 95.921875 283.128906 102.058594 C 283.128906 108.199219 278.140625 113.191406 272.007812 113.191406 L 254.210938 113.191406 C 248.074219 113.191406 243.085938 108.199219 243.085938 102.058594 C 243.085938 95.921875 248.074219 90.929688 254.210938 90.929688 Z M 254.210938 117.644531 L 272.007812 117.644531 C 280.59375 117.644531 287.582031 110.652344 287.582031 102.058594 C 287.582031 93.46875 280.59375 86.476562 272.007812 86.476562 L 254.210938 86.476562 C 245.625 86.476562 238.636719 93.46875 238.636719 102.058594 C 238.636719 110.652344 245.625 117.644531 254.210938 117.644531 " fill-opacity="1" fill-rule="nonzero"/><path fill="#000000" d="M 272.007812 99.832031 C 273.234375 99.832031 274.230469 100.832031 274.230469 102.058594 C 274.230469 103.285156 273.234375 104.285156 272.007812 104.285156 C 270.78125 104.285156 269.78125 103.285156 269.78125 102.058594 C 269.78125 100.832031 270.78125 99.832031 272.007812 99.832031 Z M 272.007812 108.738281 C 275.691406 108.738281 278.679688 105.746094 278.679688 102.058594 C 278.679688 98.371094 275.691406 95.382812 272.007812 95.382812 C 268.324219 95.382812 265.332031 98.371094 265.332031 102.058594 C 265.332031 105.746094 268.324219 108.738281 272.007812 108.738281 " fill-opacity="1" fill-rule="nonzero"/><path fill="#000000" d="M 254.210938 99.832031 C 255.433594 99.832031 256.433594 100.832031 256.433594 102.058594 C 256.433594 103.285156 255.433594 104.285156 254.210938 104.285156 C 252.984375 104.285156 251.984375 103.285156 251.984375 102.058594 C 251.984375 100.832031 252.984375 99.832031 254.210938 99.832031 Z M 254.210938 108.738281 C 257.894531 108.738281 260.882812 105.746094 260.882812 102.058594 C 260.882812 98.371094 257.894531 95.382812 254.210938 95.382812 C 250.523438 95.382812 247.535156 98.371094 247.535156 102.058594 C 247.535156 105.746094 250.523438 108.738281 254.210938 108.738281 " fill-opacity="1" fill-rule="nonzero"/><g clip-path="url(#63125a1b6d)"><path fill="#000000" d="M 281 313.546875 L 270.183594 313.546875 L 271.964844 302.851562 C 274.25 291.425781 280.914062 284.605469 289.804688 284.605469 L 308.84375 284.605469 C 308.480469 286.695312 308.132812 288.753906 307.734375 290.878906 C 305.316406 303.800781 293.828125 313.546875 281 313.546875 Z M 60.738281 273.199219 C 54.414062 223.472656 62.867188 148.183594 74.042969 102.589844 C 76.292969 93.398438 85.886719 86.476562 96.351562 86.476562 L 125.394531 86.476562 C 129.460938 86.476562 134.292969 87.632812 134.292969 93.15625 L 134.292969 153.261719 C 134.292969 156.785156 133.042969 160.226562 131.703125 163.871094 L 131.214844 165.21875 C 127.410156 175.785156 125.394531 187.820312 125.394531 200.011719 C 125.394531 211.144531 125.949219 222.988281 129.984375 234.160156 C 131.460938 238.257812 132.066406 240.597656 132.066406 244.535156 L 132.066406 313.546875 L 94.195312 313.546875 C 75.078125 312.964844 62.574219 297.929688 60.738281 273.199219 Z M 134.171875 70.894531 L 267.652344 70.894531 C 278.664062 70.894531 287.492188 76.015625 292.515625 85.3125 C 304.136719 106.808594 328.433594 168 309.636719 280.15625 L 289.804688 280.15625 C 278.792969 280.15625 270.285156 288.519531 267.59375 302.050781 L 265.671875 313.546875 L 136.519531 313.546875 L 136.519531 244.535156 C 136.519531 239.960938 135.796875 237.171875 134.164062 232.648438 C 130.375 222.117188 129.84375 210.742188 129.84375 200.011719 C 129.84375 188.324219 131.773438 176.820312 135.40625 166.722656 L 135.890625 165.402344 C 137.292969 161.550781 138.742188 157.566406 138.742188 153.261719 L 138.742188 93.15625 C 138.742188 86.285156 133.632812 82.023438 125.394531 82.023438 L 110.542969 82.023438 C 115.851562 75.085938 124.578125 70.894531 134.171875 70.894531 Z M 151.875 66.441406 L 151.875 50.855469 L 249.761719 50.855469 L 249.761719 66.441406 Z M 142.972656 41.953125 L 258.660156 41.953125 L 258.660156 66.441406 L 254.210938 66.441406 L 254.210938 48.632812 C 254.210938 47.394531 253.210938 46.40625 251.984375 46.40625 L 149.648438 46.40625 C 148.421875 46.40625 147.425781 47.394531 147.425781 48.632812 L 147.425781 66.441406 L 142.972656 66.441406 Z M 296.433594 83.1875 C 290.671875 72.546875 280.183594 66.441406 267.652344 66.441406 L 263.109375 66.441406 L 263.109375 39.726562 C 263.109375 38.492188 262.109375 37.5 260.882812 37.5 L 140.75 37.5 C 139.523438 37.5 138.523438 38.492188 138.523438 39.726562 L 138.523438 66.441406 L 134.171875 66.441406 C 121.996094 66.441406 111.027344 72.386719 105.171875 82.023438 L 96.351562 82.023438 C 83.691406 82.023438 72.488281 90.222656 69.722656 101.527344 C 58.453125 147.515625 49.929688 223.5 56.316406 273.640625 C 58.324219 300.765625 72.425781 317.347656 94.125 318 L 281 318 C 296.183594 318 309.261719 306.9375 312.113281 291.695312 C 334.613281 171.304688 308.636719 105.773438 296.433594 83.1875 " fill-opacity="1" fill-rule="nonzero"/></g></svg>