<svg xmlns="http://www.w3.org/2000/svg" xmlns:xlink="http://www.w3.org/1999/xlink" width="500" zoomAndPan="magnify" viewBox="0 0 375 374.999991" height="500" preserveAspectRatio="xMidYMid meet" version="1.0"><defs><clipPath id="7bfbe983e8"><path d="M 25.554688 67.605469 L 349.554688 67.605469 L 349.554688 294.855469 L 25.554688 294.855469 Z M 25.554688 67.605469 " clip-rule="nonzero"/></clipPath></defs><g clip-path="url(#7bfbe983e8)"><path fill="#000000" d="M 329.179688 108.007812 L 254.066406 108.007812 C 254.066406 108.007812 247.238281 93.363281 242.179688 82.757812 C 237.628906 73.160156 229.027344 67.605469 217.648438 67.605469 L 152.144531 67.605469 C 141.019531 67.605469 132.417969 72.910156 128.878906 82.757812 L 118.257812 108.007812 L 99.035156 108.007812 L 99.035156 105.480469 C 99.035156 99.925781 93.472656 95.382812 86.390625 95.382812 L 63.628906 95.382812 C 56.546875 95.382812 50.984375 99.925781 50.984375 105.480469 L 50.984375 108.007812 L 45.925781 108.007812 C 34.800781 108.007812 25.695312 117.097656 25.695312 128.207031 L 25.695312 274.65625 C 25.695312 285.765625 34.800781 294.855469 45.925781 294.855469 L 329.179688 294.855469 C 340.308594 294.855469 349.410156 285.765625 349.410156 274.65625 L 349.410156 128.207031 C 349.410156 117.097656 340.308594 108.007812 329.179688 108.007812 Z M 56.042969 105.480469 C 56.042969 102.703125 59.582031 100.433594 63.628906 100.433594 L 86.390625 100.433594 C 90.4375 100.433594 93.976562 102.703125 93.976562 105.480469 L 93.976562 108.007812 L 56.042969 108.007812 Z M 329.179688 284.757812 L 45.925781 284.757812 C 40.363281 284.757812 35.808594 280.210938 35.808594 274.65625 L 35.808594 158.507812 L 114.210938 158.507812 C 115.726562 158.507812 116.738281 157.496094 116.738281 155.980469 C 116.738281 154.464844 115.726562 153.457031 114.210938 153.457031 L 35.808594 153.457031 L 35.808594 128.207031 C 35.808594 122.652344 40.363281 118.105469 45.925781 118.105469 L 124.832031 118.105469 L 138.238281 86.796875 L 138.238281 86.292969 C 140.261719 80.738281 144.8125 77.960938 152.144531 77.960938 L 217.902344 77.960938 C 224.984375 77.960938 230.292969 81.242188 233.074219 87.300781 C 238.132812 97.652344 247.742188 118.105469 247.742188 118.105469 L 329.179688 118.105469 C 334.742188 118.105469 339.296875 122.652344 339.296875 128.207031 L 339.296875 153.457031 L 260.894531 153.457031 C 259.378906 153.457031 258.367188 154.464844 258.367188 155.980469 C 258.367188 157.496094 259.378906 158.507812 260.894531 158.507812 L 339.296875 158.507812 L 339.296875 274.65625 C 339.296875 280.210938 334.742188 284.757812 329.179688 284.757812 Z M 329.179688 284.757812 " fill-opacity="1" fill-rule="nonzero"/></g><path fill="#000000" d="M 187.554688 133.257812 C 149.871094 133.257812 119.269531 163.808594 119.269531 201.433594 C 119.269531 239.054688 149.871094 269.605469 187.554688 269.605469 C 225.234375 269.605469 255.835938 239.054688 255.835938 201.433594 C 255.835938 163.808594 225.234375 133.257812 187.554688 133.257812 Z M 187.554688 259.507812 C 155.433594 259.507812 129.386719 233.5 129.386719 201.433594 C 129.386719 169.363281 155.433594 143.355469 187.554688 143.355469 C 219.671875 143.355469 245.722656 169.363281 245.722656 201.433594 C 245.722656 233.5 219.671875 259.507812 187.554688 259.507812 Z M 187.554688 259.507812 " fill-opacity="1" fill-rule="nonzero"/><path fill="#000000" d="M 187.554688 161.03125 C 165.296875 161.03125 147.089844 179.210938 147.089844 201.433594 C 147.089844 202.945312 148.101562 203.957031 149.617188 203.957031 C 151.132812 203.957031 152.144531 202.945312 152.144531 201.433594 C 152.144531 181.988281 168.078125 166.082031 187.554688 166.082031 C 189.070312 166.082031 190.082031 165.070312 190.082031 163.558594 C 190.082031 162.042969 189.070312 161.03125 187.554688 161.03125 Z M 187.554688 161.03125 " fill-opacity="1" fill-rule="nonzero"/><path fill="#000000" d="M 152.144531 211.53125 C 152.144531 211.867188 152.082031 212.1875 151.953125 212.496094 C 151.824219 212.808594 151.644531 213.082031 151.40625 213.316406 C 151.167969 213.554688 150.894531 213.738281 150.585938 213.863281 C 150.273438 213.992188 149.953125 214.058594 149.617188 214.058594 C 149.28125 214.058594 148.960938 213.992188 148.648438 213.863281 C 148.339844 213.738281 148.066406 213.554688 147.828125 213.316406 C 147.59375 213.082031 147.410156 212.808594 147.28125 212.496094 C 147.152344 212.1875 147.089844 211.867188 147.089844 211.53125 C 147.089844 211.195312 147.152344 210.875 147.28125 210.566406 C 147.410156 210.257812 147.59375 209.984375 147.828125 209.746094 C 148.066406 209.507812 148.339844 209.328125 148.648438 209.199219 C 148.960938 209.070312 149.28125 209.007812 149.617188 209.007812 C 149.953125 209.007812 150.273438 209.070312 150.585938 209.199219 C 150.894531 209.328125 151.167969 209.507812 151.40625 209.746094 C 151.644531 209.984375 151.824219 210.257812 151.953125 210.566406 C 152.082031 210.875 152.144531 211.195312 152.144531 211.53125 Z M 152.144531 211.53125 " fill-opacity="1" fill-rule="nonzero"/><path fill="#000000" d="M 319.0625 135.527344 C 319.0625 135.859375 319.03125 136.1875 318.964844 136.515625 C 318.902344 136.839844 318.804688 137.15625 318.679688 137.460938 C 318.550781 137.769531 318.394531 138.058594 318.210938 138.335938 C 318.027344 138.609375 317.816406 138.867188 317.582031 139.101562 C 317.347656 139.335938 317.089844 139.542969 316.816406 139.726562 C 316.539062 139.914062 316.246094 140.066406 315.941406 140.195312 C 315.632812 140.320312 315.316406 140.417969 314.992188 140.480469 C 314.664062 140.546875 314.335938 140.578125 314.003906 140.578125 C 313.671875 140.578125 313.34375 140.546875 313.019531 140.480469 C 312.691406 140.417969 312.375 140.320312 312.070312 140.195312 C 311.761719 140.066406 311.472656 139.914062 311.195312 139.726562 C 310.917969 139.542969 310.664062 139.335938 310.429688 139.101562 C 310.195312 138.867188 309.984375 138.609375 309.800781 138.335938 C 309.613281 138.058594 309.457031 137.769531 309.332031 137.460938 C 309.203125 137.15625 309.109375 136.839844 309.042969 136.515625 C 308.980469 136.1875 308.945312 135.859375 308.945312 135.527344 C 308.945312 135.199219 308.980469 134.871094 309.042969 134.542969 C 309.109375 134.21875 309.203125 133.902344 309.332031 133.597656 C 309.457031 133.289062 309.613281 133 309.800781 132.722656 C 309.984375 132.449219 310.195312 132.191406 310.429688 131.957031 C 310.664062 131.722656 310.917969 131.515625 311.195312 131.332031 C 311.472656 131.144531 311.761719 130.992188 312.070312 130.863281 C 312.375 130.738281 312.691406 130.640625 313.019531 130.578125 C 313.34375 130.511719 313.671875 130.480469 314.003906 130.480469 C 314.335938 130.480469 314.664062 130.511719 314.992188 130.578125 C 315.316406 130.640625 315.632812 130.738281 315.941406 130.863281 C 316.246094 130.992188 316.539062 131.144531 316.816406 131.332031 C 317.089844 131.515625 317.347656 131.722656 317.582031 131.957031 C 317.816406 132.191406 318.027344 132.449219 318.210938 132.722656 C 318.394531 133 318.550781 133.289062 318.679688 133.597656 C 318.804688 133.902344 318.902344 134.21875 318.964844 134.542969 C 319.03125 134.871094 319.0625 135.199219 319.0625 135.527344 Z M 319.0625 135.527344 " fill-opacity="1" fill-rule="nonzero"/></svg>