<svg xmlns="http://www.w3.org/2000/svg" xmlns:xlink="http://www.w3.org/1999/xlink" width="500" zoomAndPan="magnify" viewBox="0 0 375 374.999991" height="500" preserveAspectRatio="xMidYMid meet" version="1.0"><defs><clipPath id="50a6da5068"><path d="M 88 28.972656 L 289 28.972656 L 289 343.222656 L 88 343.222656 Z M 88 28.972656 " clip-rule="nonzero"/></clipPath></defs><path fill="#000000" d="M 152.949219 193.0625 L 179.550781 193.0625 C 180.007812 193.0625 180.460938 193.019531 180.90625 192.929688 C 181.351562 192.84375 181.789062 192.710938 182.207031 192.535156 C 182.628906 192.363281 183.03125 192.148438 183.410156 191.894531 C 183.789062 191.644531 184.136719 191.355469 184.460938 191.035156 C 184.78125 190.710938 185.070312 190.363281 185.324219 189.984375 C 185.578125 189.605469 185.789062 189.203125 185.964844 188.785156 C 186.140625 188.363281 186.269531 187.929688 186.359375 187.484375 C 186.449219 187.035156 186.492188 186.585938 186.492188 186.132812 L 186.492188 146.265625 C 186.492188 145.808594 186.449219 145.359375 186.359375 144.914062 C 186.269531 144.464844 186.140625 144.03125 185.964844 143.613281 C 185.789062 143.191406 185.578125 142.792969 185.324219 142.414062 C 185.070312 142.035156 184.78125 141.683594 184.460938 141.363281 C 184.136719 141.039062 183.789062 140.753906 183.410156 140.5 C 183.03125 140.246094 182.628906 140.035156 182.207031 139.859375 C 181.789062 139.683594 181.351562 139.554688 180.90625 139.464844 C 180.460938 139.375 180.007812 139.332031 179.550781 139.332031 C 179.097656 139.332031 178.644531 139.375 178.199219 139.464844 C 177.75 139.554688 177.316406 139.683594 176.894531 139.859375 C 176.472656 140.035156 176.074219 140.246094 175.695312 140.5 C 175.316406 140.753906 174.964844 141.039062 174.644531 141.363281 C 174.320312 141.683594 174.035156 142.035156 173.78125 142.414062 C 173.527344 142.792969 173.3125 143.191406 173.140625 143.613281 C 172.964844 144.03125 172.832031 144.464844 172.742188 144.910156 C 172.65625 145.359375 172.609375 145.808594 172.609375 146.265625 L 172.609375 179.199219 L 152.949219 179.199219 C 152.492188 179.199219 152.039062 179.242188 151.59375 179.332031 C 151.148438 179.417969 150.710938 179.550781 150.292969 179.726562 C 149.871094 179.898438 149.46875 180.113281 149.089844 180.367188 C 148.710938 180.617188 148.363281 180.90625 148.039062 181.226562 C 147.71875 181.550781 147.429688 181.902344 147.175781 182.277344 C 146.921875 182.65625 146.710938 183.058594 146.535156 183.476562 C 146.359375 183.898438 146.230469 184.332031 146.140625 184.777344 C 146.050781 185.226562 146.007812 185.675781 146.007812 186.132812 C 146.007812 186.585938 146.050781 187.035156 146.140625 187.484375 C 146.230469 187.929688 146.359375 188.363281 146.535156 188.785156 C 146.710938 189.203125 146.921875 189.605469 147.175781 189.984375 C 147.429688 190.363281 147.71875 190.710938 148.039062 191.035156 C 148.363281 191.355469 148.710938 191.644531 149.089844 191.894531 C 149.46875 192.148438 149.871094 192.363281 150.292969 192.535156 C 150.710938 192.710938 151.148438 192.84375 151.59375 192.929688 C 152.039062 193.019531 152.492188 193.0625 152.949219 193.0625 Z M 152.949219 193.0625 " fill-opacity="1" fill-rule="nonzero"/><g clip-path="url(#50a6da5068)"><path fill="#000000" d="M 117.476562 252.96875 L 124.625 336.929688 C 124.664062 337.359375 124.738281 337.78125 124.855469 338.199219 C 124.96875 338.613281 125.125 339.015625 125.316406 339.402344 C 125.503906 339.789062 125.730469 340.15625 125.988281 340.5 C 126.25 340.847656 126.539062 341.164062 126.855469 341.457031 C 127.175781 341.746094 127.519531 342.003906 127.886719 342.234375 C 128.253906 342.460938 128.636719 342.652344 129.039062 342.808594 C 129.445312 342.960938 129.859375 343.078125 130.28125 343.15625 C 130.707031 343.238281 131.136719 343.273438 131.566406 343.273438 L 227.625 343.273438 C 228.054688 343.273438 228.484375 343.238281 228.910156 343.15625 C 229.332031 343.078125 229.746094 342.960938 230.148438 342.808594 C 230.554688 342.652344 230.9375 342.460938 231.304688 342.234375 C 231.671875 342.003906 232.015625 341.746094 232.335938 341.457031 C 232.652344 341.164062 232.941406 340.847656 233.199219 340.5 C 233.460938 340.15625 233.683594 339.789062 233.875 339.402344 C 234.066406 339.015625 234.21875 338.613281 234.335938 338.199219 C 234.453125 337.78125 234.527344 337.359375 234.566406 336.929688 L 241.835938 251.582031 C 244.839844 248.707031 247.628906 245.640625 250.210938 242.382812 C 252.789062 239.125 255.136719 235.707031 257.246094 232.128906 C 259.355469 228.550781 261.214844 224.84375 262.816406 221.011719 C 264.414062 217.175781 265.746094 213.253906 266.808594 209.234375 L 269.378906 209.234375 C 270.015625 209.234375 270.652344 209.203125 271.289062 209.140625 C 271.925781 209.074219 272.558594 208.980469 273.183594 208.855469 C 273.808594 208.730469 274.429688 208.574219 275.039062 208.386719 C 275.652344 208.203125 276.253906 207.988281 276.84375 207.742188 C 277.433594 207.496094 278.011719 207.226562 278.574219 206.921875 C 279.136719 206.621094 279.683594 206.292969 280.214844 205.9375 C 280.746094 205.585938 281.257812 205.203125 281.753906 204.800781 C 282.246094 204.394531 282.71875 203.964844 283.171875 203.515625 C 283.625 203.0625 284.054688 202.589844 284.457031 202.097656 C 284.863281 201.605469 285.246094 201.09375 285.601562 200.5625 C 285.953125 200.03125 286.285156 199.484375 286.585938 198.921875 C 286.886719 198.359375 287.160156 197.78125 287.40625 197.191406 C 287.648438 196.605469 287.867188 196.003906 288.050781 195.394531 C 288.238281 194.78125 288.394531 194.164062 288.519531 193.539062 C 288.644531 192.914062 288.738281 192.28125 288.804688 191.648438 C 288.867188 191.011719 288.898438 190.375 288.902344 189.734375 L 288.902344 183.667969 C 288.898438 183.03125 288.867188 182.394531 288.804688 181.757812 C 288.738281 181.125 288.644531 180.492188 288.519531 179.867188 C 288.394531 179.242188 288.238281 178.625 288.050781 178.011719 C 287.867188 177.402344 287.648438 176.800781 287.40625 176.210938 C 287.160156 175.625 286.886719 175.046875 286.585938 174.484375 C 286.285156 173.921875 285.953125 173.375 285.597656 172.84375 C 285.246094 172.3125 284.863281 171.800781 284.457031 171.308594 C 284.054688 170.816406 283.625 170.34375 283.171875 169.890625 C 282.71875 169.441406 282.246094 169.011719 281.753906 168.605469 C 281.257812 168.203125 280.746094 167.820312 280.214844 167.46875 C 279.683594 167.113281 279.136719 166.785156 278.574219 166.484375 C 278.011719 166.179688 277.433594 165.910156 276.84375 165.664062 C 276.253906 165.417969 275.652344 165.203125 275.039062 165.015625 C 274.429688 164.832031 273.808594 164.675781 273.183594 164.550781 C 272.558594 164.425781 271.925781 164.332031 271.289062 164.265625 C 270.652344 164.203125 270.015625 164.171875 269.378906 164.167969 L 267.105469 164.167969 C 266.066406 160.042969 264.746094 156.007812 263.140625 152.066406 C 261.539062 148.125 259.667969 144.3125 257.527344 140.632812 C 255.386719 136.953125 253 133.441406 250.367188 130.097656 C 247.730469 126.753906 244.878906 123.609375 241.800781 120.664062 L 234.53125 35.316406 C 234.492188 34.886719 234.417969 34.460938 234.300781 34.046875 C 234.183594 33.632812 234.03125 33.230469 233.839844 32.84375 C 233.652344 32.457031 233.425781 32.089844 233.167969 31.742188 C 232.90625 31.398438 232.617188 31.082031 232.300781 30.789062 C 231.980469 30.5 231.636719 30.238281 231.269531 30.011719 C 230.902344 29.785156 230.519531 29.59375 230.117188 29.4375 C 229.710938 29.28125 229.296875 29.164062 228.875 29.085938 C 228.449219 29.007812 228.019531 28.96875 227.589844 28.972656 L 131.5 28.972656 C 131.066406 28.96875 130.636719 29.007812 130.214844 29.085938 C 129.789062 29.164062 129.375 29.28125 128.972656 29.4375 C 128.570312 29.59375 128.183594 29.785156 127.816406 30.011719 C 127.449219 30.238281 127.105469 30.5 126.789062 30.789062 C 126.46875 31.082031 126.179688 31.398438 125.921875 31.742188 C 125.660156 32.089844 125.4375 32.457031 125.246094 32.84375 C 125.054688 33.230469 124.902344 33.632812 124.785156 34.046875 C 124.667969 34.460938 124.59375 34.886719 124.558594 35.316406 L 117.476562 119.277344 C 116.320312 120.335938 115.191406 121.421875 114.09375 122.539062 C 112.992188 123.65625 111.921875 124.800781 110.882812 125.972656 C 109.84375 127.144531 108.832031 128.34375 107.855469 129.566406 C 106.875 130.789062 105.929688 132.039062 105.019531 133.3125 C 104.105469 134.585938 103.226562 135.882812 102.378906 137.199219 C 101.53125 138.519531 100.722656 139.859375 99.945312 141.21875 C 99.167969 142.578125 98.425781 143.960938 97.722656 145.359375 C 97.015625 146.757812 96.347656 148.175781 95.71875 149.609375 C 95.085938 151.042969 94.492188 152.492188 93.933594 153.953125 C 93.378906 155.417969 92.859375 156.898438 92.382812 158.386719 C 91.902344 159.878906 91.460938 161.382812 91.058594 162.894531 C 90.65625 164.410156 90.296875 165.933594 89.972656 167.464844 C 89.648438 169 89.367188 170.539062 89.125 172.085938 C 88.882812 173.632812 88.679688 175.1875 88.515625 176.742188 C 88.355469 178.300781 88.234375 179.863281 88.152344 181.425781 C 88.070312 182.992188 88.03125 184.554688 88.03125 186.121094 C 88.03125 187.6875 88.070312 189.253906 88.152344 190.816406 C 88.234375 192.382812 88.355469 193.941406 88.515625 195.5 C 88.679688 197.058594 88.882812 198.613281 89.125 200.160156 C 89.367188 201.707031 89.648438 203.246094 89.972656 204.777344 C 90.296875 206.3125 90.65625 207.835938 91.058594 209.347656 C 91.460938 210.863281 91.902344 212.367188 92.382812 213.855469 C 92.859375 215.347656 93.378906 216.824219 93.933594 218.289062 C 94.492188 219.753906 95.085938 221.203125 95.71875 222.636719 C 96.347656 224.070312 97.015625 225.488281 97.722656 226.886719 C 98.425781 228.285156 99.167969 229.664062 99.945312 231.027344 C 100.722656 232.386719 101.53125 233.726562 102.378906 235.042969 C 103.226562 236.363281 104.105469 237.660156 105.019531 238.933594 C 105.929688 240.207031 106.875 241.453125 107.855469 242.679688 C 108.832031 243.902344 109.84375 245.101562 110.882812 246.273438 C 111.921875 247.445312 112.992188 248.589844 114.09375 249.707031 C 115.191406 250.820312 116.320312 251.910156 117.476562 252.96875 Z M 221.289062 329.40625 L 137.988281 329.40625 L 132.4375 264.0625 C 134.214844 265.125 136.027344 266.125 137.875 267.066406 C 139.722656 268.003906 141.601562 268.878906 143.507812 269.691406 C 145.417969 270.503906 147.351562 271.246094 149.308594 271.925781 C 151.269531 272.605469 153.246094 273.214844 155.25 273.757812 C 157.25 274.300781 159.265625 274.773438 161.300781 275.179688 C 163.332031 275.582031 165.378906 275.917969 167.433594 276.179688 C 169.492188 276.445312 171.554688 276.640625 173.625 276.761719 C 175.695312 276.886719 177.765625 276.9375 179.839844 276.917969 C 181.914062 276.898438 183.984375 276.808594 186.050781 276.648438 C 188.117188 276.488281 190.175781 276.253906 192.226562 275.953125 C 194.277344 275.652344 196.316406 275.28125 198.34375 274.839844 C 200.367188 274.398438 202.375 273.886719 204.367188 273.308594 C 206.359375 272.726562 208.324219 272.082031 210.273438 271.367188 C 212.21875 270.652344 214.136719 269.871094 216.03125 269.027344 C 217.921875 268.179688 219.785156 267.273438 221.613281 266.296875 C 223.445312 265.324219 225.238281 264.289062 227 263.195312 Z M 275.085938 183.667969 L 275.085938 189.734375 C 275.085938 190.109375 275.046875 190.476562 274.972656 190.84375 C 274.898438 191.207031 274.789062 191.5625 274.644531 191.90625 C 274.5 192.25 274.324219 192.574219 274.117188 192.882812 C 273.90625 193.191406 273.671875 193.476562 273.40625 193.738281 C 273.140625 194 272.851562 194.234375 272.539062 194.4375 C 272.226562 194.644531 271.898438 194.816406 271.554688 194.957031 C 271.207031 195.097656 270.851562 195.199219 270.484375 195.269531 C 270.121094 195.339844 269.75 195.371094 269.378906 195.371094 C 269.691406 192.296875 269.847656 189.21875 269.84375 186.132812 C 269.84375 183.390625 269.707031 180.707031 269.464844 178.035156 C 269.828125 178.042969 270.191406 178.085938 270.550781 178.164062 C 270.90625 178.242188 271.253906 178.355469 271.589844 178.5 C 271.925781 178.644531 272.246094 178.820312 272.546875 179.027344 C 272.851562 179.230469 273.128906 179.464844 273.386719 179.726562 C 273.644531 179.988281 273.871094 180.269531 274.074219 180.574219 C 274.277344 180.878906 274.449219 181.199219 274.585938 181.539062 C 274.726562 181.875 274.832031 182.226562 274.90625 182.582031 C 274.976562 182.941406 275.015625 183.304688 275.015625 183.667969 Z M 137.867188 42.835938 L 221.167969 42.835938 L 226.808594 109.050781 C 225.046875 107.953125 223.253906 106.917969 221.421875 105.945312 C 219.59375 104.972656 217.730469 104.0625 215.839844 103.21875 C 213.945312 102.371094 212.027344 101.59375 210.082031 100.878906 C 208.136719 100.164062 206.167969 99.515625 204.175781 98.9375 C 202.183594 98.359375 200.175781 97.847656 198.152344 97.40625 C 196.125 96.964844 194.085938 96.59375 192.035156 96.289062 C 189.984375 95.988281 187.925781 95.757812 185.859375 95.597656 C 183.792969 95.4375 181.722656 95.34375 179.648438 95.328125 C 177.574219 95.308594 175.503906 95.359375 173.433594 95.484375 C 171.363281 95.605469 169.300781 95.800781 167.246094 96.0625 C 165.1875 96.328125 163.144531 96.664062 161.109375 97.066406 C 159.074219 97.472656 157.058594 97.945312 155.058594 98.488281 C 153.058594 99.03125 151.078125 99.640625 149.117188 100.320312 C 147.160156 100.996094 145.226562 101.742188 143.316406 102.554688 C 141.410156 103.363281 139.53125 104.238281 137.683594 105.179688 C 135.835938 106.117188 134.023438 107.121094 132.246094 108.183594 Z M 178.894531 109.1875 C 180.152344 109.1875 181.414062 109.21875 182.671875 109.28125 C 183.933594 109.34375 185.1875 109.4375 186.445312 109.558594 C 187.699219 109.683594 188.949219 109.835938 190.195312 110.023438 C 191.441406 110.207031 192.683594 110.421875 193.921875 110.667969 C 195.15625 110.914062 196.386719 111.1875 197.609375 111.496094 C 198.832031 111.800781 200.046875 112.136719 201.253906 112.503906 C 202.460938 112.867188 203.65625 113.261719 204.84375 113.6875 C 206.03125 114.109375 207.207031 114.5625 208.371094 115.046875 C 209.539062 115.527344 210.691406 116.039062 211.828125 116.578125 C 212.96875 117.113281 214.09375 117.679688 215.207031 118.273438 C 216.320312 118.867188 217.414062 119.488281 218.496094 120.136719 C 219.578125 120.78125 220.644531 121.457031 221.691406 122.15625 C 222.738281 122.855469 223.769531 123.582031 224.78125 124.332031 C 225.796875 125.082031 226.789062 125.855469 227.761719 126.652344 C 228.738281 127.453125 229.691406 128.273438 230.625 129.121094 C 231.558594 129.964844 232.472656 130.835938 233.363281 131.726562 C 234.257812 132.617188 235.125 133.527344 235.972656 134.460938 C 236.820312 135.394531 237.640625 136.347656 238.441406 137.320312 C 239.242188 138.292969 240.015625 139.285156 240.769531 140.296875 C 241.519531 141.308594 242.246094 142.335938 242.945312 143.382812 C 243.644531 144.429688 244.320312 145.496094 244.96875 146.574219 C 245.617188 147.65625 246.238281 148.75 246.832031 149.859375 C 247.425781 150.972656 247.992188 152.097656 248.53125 153.234375 C 249.070312 154.371094 249.582031 155.523438 250.0625 156.6875 C 250.546875 157.851562 251 159.023438 251.425781 160.210938 C 251.847656 161.394531 252.246094 162.589844 252.609375 163.796875 C 252.976562 165 253.3125 166.214844 253.617188 167.4375 C 253.925781 168.65625 254.203125 169.886719 254.449219 171.121094 C 254.695312 172.355469 254.910156 173.59375 255.09375 174.839844 C 255.277344 176.085938 255.433594 177.335938 255.558594 178.589844 C 255.679688 179.84375 255.773438 181.097656 255.835938 182.355469 C 255.898438 183.613281 255.925781 184.871094 255.925781 186.132812 C 255.925781 187.390625 255.898438 188.648438 255.835938 189.90625 C 255.773438 191.164062 255.679688 192.417969 255.558594 193.671875 C 255.433594 194.925781 255.277344 196.175781 255.09375 197.421875 C 254.910156 198.667969 254.695312 199.90625 254.449219 201.140625 C 254.203125 202.375 253.925781 203.605469 253.617188 204.828125 C 253.3125 206.046875 252.976562 207.261719 252.609375 208.464844 C 252.246094 209.671875 251.847656 210.867188 251.425781 212.050781 C 251 213.238281 250.546875 214.410156 250.0625 215.574219 C 249.582031 216.738281 249.070312 217.890625 248.53125 219.027344 C 247.992188 220.167969 247.425781 221.289062 246.832031 222.402344 C 246.238281 223.511719 245.617188 224.605469 244.96875 225.6875 C 244.320312 226.765625 243.644531 227.832031 242.945312 228.878906 C 242.246094 229.925781 241.519531 230.953125 240.769531 231.964844 C 240.015625 232.976562 239.242188 233.96875 238.441406 234.941406 C 237.640625 235.914062 236.820312 236.867188 235.972656 237.800781 C 235.125 238.734375 234.257812 239.648438 233.363281 240.535156 C 232.472656 241.425781 231.558594 242.296875 230.625 243.140625 C 229.691406 243.988281 228.738281 244.808594 227.761719 245.609375 C 226.789062 246.40625 225.796875 247.179688 224.78125 247.929688 C 223.769531 248.679688 222.738281 249.40625 221.691406 250.105469 C 220.644531 250.804688 219.578125 251.480469 218.496094 252.125 C 217.414062 252.773438 216.320312 253.394531 215.207031 253.988281 C 214.09375 254.582031 212.96875 255.148438 211.828125 255.683594 C 210.691406 256.222656 209.539062 256.734375 208.371094 257.214844 C 207.207031 257.699219 206.03125 258.152344 204.84375 258.574219 C 203.65625 259 202.460938 259.394531 201.253906 259.757812 C 200.046875 260.125 198.832031 260.460938 197.609375 260.765625 C 196.386719 261.074219 195.15625 261.347656 193.921875 261.59375 C 192.683594 261.839844 191.441406 262.054688 190.195312 262.238281 C 188.949219 262.425781 187.699219 262.578125 186.445312 262.703125 C 185.1875 262.824219 183.933594 262.917969 182.671875 262.980469 C 181.414062 263.042969 180.152344 263.074219 178.894531 263.074219 C 177.632812 263.074219 176.371094 263.042969 175.113281 262.980469 C 173.851562 262.917969 172.597656 262.824219 171.34375 262.703125 C 170.085938 262.578125 168.835938 262.425781 167.589844 262.238281 C 166.34375 262.054688 165.101562 261.839844 163.863281 261.59375 C 162.628906 261.347656 161.398438 261.074219 160.175781 260.765625 C 158.953125 260.460938 157.738281 260.125 156.53125 259.757812 C 155.324219 259.394531 154.128906 259 152.941406 258.574219 C 151.753906 258.152344 150.578125 257.699219 149.414062 257.214844 C 148.246094 256.734375 147.09375 256.222656 145.957031 255.683594 C 144.816406 255.148438 143.691406 254.582031 142.578125 253.988281 C 141.464844 253.394531 140.371094 252.773438 139.289062 252.125 C 138.207031 251.480469 137.140625 250.804688 136.09375 250.105469 C 135.046875 249.40625 134.015625 248.679688 133.003906 247.929688 C 131.992188 247.179688 130.996094 246.40625 130.023438 245.609375 C 129.046875 244.808594 128.09375 243.988281 127.160156 243.140625 C 126.226562 242.296875 125.3125 241.425781 124.421875 240.535156 C 123.527344 239.648438 122.660156 238.734375 121.8125 237.800781 C 120.964844 236.867188 120.144531 235.914062 119.34375 234.941406 C 118.542969 233.96875 117.769531 232.976562 117.015625 231.964844 C 116.265625 230.953125 115.539062 229.925781 114.839844 228.878906 C 114.140625 227.832031 113.464844 226.765625 112.816406 225.6875 C 112.167969 224.605469 111.546875 223.511719 110.953125 222.402344 C 110.359375 221.289062 109.792969 220.167969 109.253906 219.027344 C 108.714844 217.890625 108.203125 216.738281 107.722656 215.574219 C 107.238281 214.410156 106.785156 213.238281 106.359375 212.050781 C 105.9375 210.867188 105.539062 209.671875 105.175781 208.464844 C 104.808594 207.261719 104.472656 206.046875 104.167969 204.828125 C 103.859375 203.605469 103.582031 202.375 103.335938 201.140625 C 103.09375 199.90625 102.875 198.667969 102.691406 197.421875 C 102.507812 196.175781 102.351562 194.925781 102.230469 193.671875 C 102.105469 192.417969 102.011719 191.164062 101.949219 189.90625 C 101.886719 188.648438 101.859375 187.390625 101.859375 186.132812 C 101.859375 184.871094 101.890625 183.613281 101.953125 182.355469 C 102.015625 181.097656 102.109375 179.84375 102.234375 178.589844 C 102.359375 177.339844 102.515625 176.089844 102.699219 174.84375 C 102.886719 173.597656 103.101562 172.359375 103.347656 171.125 C 103.597656 169.890625 103.871094 168.664062 104.179688 167.441406 C 104.488281 166.222656 104.824219 165.007812 105.191406 163.804688 C 105.558594 162.597656 105.953125 161.40625 106.378906 160.21875 C 106.804688 159.035156 107.257812 157.859375 107.738281 156.699219 C 108.222656 155.535156 108.734375 154.382812 109.273438 153.246094 C 109.8125 152.109375 110.378906 150.984375 110.972656 149.875 C 111.570312 148.765625 112.191406 147.667969 112.839844 146.589844 C 113.488281 145.511719 114.160156 144.449219 114.863281 143.402344 C 115.5625 142.355469 116.289062 141.324219 117.039062 140.3125 C 117.789062 139.304688 118.566406 138.3125 119.363281 137.339844 C 120.164062 136.363281 120.988281 135.414062 121.835938 134.480469 C 122.679688 133.546875 123.550781 132.636719 124.441406 131.746094 C 125.332031 130.855469 126.246094 129.988281 127.179688 129.140625 C 128.113281 128.296875 129.066406 127.472656 130.039062 126.675781 C 131.015625 125.875 132.007812 125.101562 133.019531 124.351562 C 134.03125 123.601562 135.0625 122.878906 136.109375 122.175781 C 137.160156 121.476562 138.222656 120.804688 139.304688 120.15625 C 140.382812 119.507812 141.480469 118.886719 142.59375 118.292969 C 143.703125 117.699219 144.828125 117.132812 145.96875 116.597656 C 147.105469 116.058594 148.257812 115.546875 149.421875 115.066406 C 150.585938 114.582031 151.761719 114.128906 152.949219 113.703125 C 154.136719 113.277344 155.332031 112.882812 156.539062 112.519531 C 157.746094 112.152344 158.957031 111.816406 160.179688 111.507812 C 161.402344 111.203125 162.632812 110.925781 163.867188 110.679688 C 165.105469 110.433594 166.347656 110.214844 167.59375 110.03125 C 168.839844 109.84375 170.089844 109.691406 171.34375 109.566406 C 172.597656 109.441406 173.855469 109.347656 175.113281 109.285156 C 176.371094 109.222656 177.632812 109.191406 178.894531 109.1875 Z M 178.894531 109.1875 " fill-opacity="1" fill-rule="nonzero"/></g></svg>