<svg xmlns="http://www.w3.org/2000/svg" xmlns:xlink="http://www.w3.org/1999/xlink" width="500" zoomAndPan="magnify" viewBox="0 0 375 374.999991" height="500" preserveAspectRatio="xMidYMid meet" version="1.0"><defs><clipPath id="3e8bd461db"><path d="M 37.5 33.339844 L 342 33.339844 L 342 337.839844 L 37.5 337.839844 Z M 37.5 33.339844 " clip-rule="nonzero"/></clipPath></defs><g clip-path="url(#3e8bd461db)"><path fill="#000000" d="M 189.75 33.339844 C 187.257812 33.339844 184.769531 33.402344 182.28125 33.523438 C 179.789062 33.644531 177.304688 33.828125 174.828125 34.074219 C 172.347656 34.316406 169.875 34.621094 167.410156 34.988281 C 164.945312 35.351562 162.492188 35.777344 160.046875 36.265625 C 157.605469 36.75 155.171875 37.296875 152.757812 37.902344 C 150.339844 38.507812 147.9375 39.171875 145.554688 39.894531 C 143.167969 40.617188 140.804688 41.398438 138.457031 42.238281 C 136.113281 43.078125 133.789062 43.976562 131.488281 44.929688 C 129.183594 45.882812 126.90625 46.890625 124.65625 47.957031 C 122.402344 49.023438 120.175781 50.144531 117.980469 51.316406 C 115.78125 52.492188 113.613281 53.71875 111.476562 55 C 109.339844 56.28125 107.234375 57.613281 105.164062 59 C 103.09375 60.382812 101.054688 61.816406 99.054688 63.300781 C 97.054688 64.785156 95.089844 66.316406 93.164062 67.898438 C 91.238281 69.480469 89.351562 71.105469 87.503906 72.78125 C 85.660156 74.453125 83.855469 76.171875 82.09375 77.933594 C 80.332031 79.695312 78.613281 81.5 76.941406 83.34375 C 75.265625 85.191406 73.640625 87.078125 72.058594 89.003906 C 70.476562 90.929688 68.945312 92.894531 67.460938 94.894531 C 65.976562 96.894531 64.542969 98.933594 63.160156 101.003906 C 61.773438 103.074219 60.441406 105.179688 59.160156 107.316406 C 57.878906 109.453125 56.652344 111.621094 55.476562 113.820312 C 54.304688 116.015625 53.183594 118.242188 52.117188 120.496094 C 51.050781 122.746094 50.042969 125.023438 49.089844 127.324219 C 48.136719 129.628906 47.238281 131.953125 46.398438 134.296875 C 45.558594 136.644531 44.777344 139.007812 44.054688 141.394531 C 43.332031 143.777344 42.667969 146.179688 42.0625 148.597656 C 41.457031 151.011719 40.910156 153.445312 40.425781 155.886719 C 39.9375 158.332031 39.511719 160.785156 39.148438 163.25 C 38.78125 165.714844 38.476562 168.1875 38.234375 170.667969 C 37.988281 173.144531 37.804688 175.628906 37.683594 178.121094 C 37.5625 180.609375 37.5 183.097656 37.5 185.589844 C 37.5 188.082031 37.5625 190.570312 37.683594 193.058594 C 37.804688 195.550781 37.988281 198.03125 38.234375 200.511719 C 38.476562 202.992188 38.78125 205.464844 39.148438 207.929688 C 39.511719 210.394531 39.9375 212.847656 40.425781 215.292969 C 40.910156 217.734375 41.457031 220.167969 42.0625 222.582031 C 42.667969 225 43.332031 227.402344 44.054688 229.785156 C 44.777344 232.171875 45.558594 234.535156 46.398438 236.882812 C 47.238281 239.226562 48.136719 241.550781 49.089844 243.851562 C 50.042969 246.15625 51.050781 248.433594 52.117188 250.683594 C 53.183594 252.9375 54.304688 255.164062 55.476562 257.359375 C 56.652344 259.558594 57.878906 261.726562 59.160156 263.863281 C 60.441406 266 61.773438 268.101562 63.160156 270.175781 C 64.542969 272.246094 65.976562 274.285156 67.460938 276.285156 C 68.945312 278.285156 70.476562 280.25 72.058594 282.175781 C 73.640625 284.101562 75.265625 285.988281 76.941406 287.835938 C 78.613281 289.679688 80.332031 291.484375 82.09375 293.246094 C 83.855469 295.007812 85.660156 296.726562 87.503906 298.398438 C 89.351562 300.074219 91.238281 301.699219 93.164062 303.28125 C 95.089844 304.859375 97.054688 306.394531 99.054688 307.878906 C 101.054688 309.363281 103.09375 310.796875 105.164062 312.179688 C 107.234375 313.566406 109.339844 314.898438 111.476562 316.179688 C 113.613281 317.460938 115.78125 318.6875 117.980469 319.863281 C 120.175781 321.035156 122.402344 322.15625 124.65625 323.222656 C 126.90625 324.289062 129.183594 325.296875 131.488281 326.25 C 133.789062 327.203125 136.113281 328.101562 138.457031 328.941406 C 140.804688 329.777344 143.167969 330.5625 145.554688 331.285156 C 147.9375 332.007812 150.339844 332.671875 152.757812 333.277344 C 155.171875 333.882812 157.605469 334.429688 160.046875 334.914062 C 162.492188 335.398438 164.945312 335.828125 167.410156 336.191406 C 169.875 336.558594 172.347656 336.863281 174.828125 337.105469 C 177.304688 337.351562 179.789062 337.535156 182.28125 337.65625 C 184.769531 337.777344 187.257812 337.839844 189.75 337.839844 C 192.242188 337.839844 194.730469 337.777344 197.21875 337.65625 C 199.710938 337.535156 202.195312 337.351562 204.671875 337.105469 C 207.152344 336.863281 209.625 336.558594 212.089844 336.191406 C 214.554688 335.828125 217.007812 335.398438 219.453125 334.914062 C 221.894531 334.429688 224.328125 333.882812 226.742188 333.277344 C 229.160156 332.671875 231.5625 332.007812 233.945312 331.285156 C 236.332031 330.558594 238.695312 329.777344 241.042969 328.941406 C 243.386719 328.101562 245.710938 327.203125 248.011719 326.25 C 250.316406 325.296875 252.59375 324.289062 254.84375 323.222656 C 257.097656 322.15625 259.324219 321.035156 261.519531 319.863281 C 263.71875 318.6875 265.886719 317.460938 268.023438 316.179688 C 270.160156 314.898438 272.265625 313.566406 274.335938 312.179688 C 276.40625 310.796875 278.445312 309.363281 280.445312 307.878906 C 282.445312 306.394531 284.410156 304.859375 286.335938 303.28125 C 288.261719 301.699219 290.148438 300.074219 291.996094 298.398438 C 293.839844 296.726562 295.644531 295.007812 297.40625 293.246094 C 299.167969 291.484375 300.886719 289.679688 302.558594 287.835938 C 304.234375 285.988281 305.859375 284.101562 307.441406 282.175781 C 309.023438 280.25 310.554688 278.285156 312.039062 276.285156 C 313.523438 274.285156 314.957031 272.246094 316.339844 270.175781 C 317.726562 268.101562 319.058594 266 320.339844 263.863281 C 321.621094 261.726562 322.847656 259.558594 324.023438 257.359375 C 325.195312 255.164062 326.316406 252.9375 327.382812 250.683594 C 328.449219 248.433594 329.457031 246.15625 330.410156 243.851562 C 331.363281 241.550781 332.261719 239.226562 333.101562 236.882812 C 333.941406 234.535156 334.722656 232.171875 335.445312 229.785156 C 336.167969 227.402344 336.832031 225 337.4375 222.582031 C 338.042969 220.167969 338.589844 217.734375 339.074219 215.292969 C 339.5625 212.847656 339.988281 210.394531 340.351562 207.929688 C 340.71875 205.464844 341.023438 202.992188 341.265625 200.511719 C 341.511719 198.03125 341.695312 195.550781 341.816406 193.058594 C 341.9375 190.570312 342 188.082031 342 185.589844 C 342 183.097656 341.9375 180.609375 341.816406 178.121094 C 341.691406 175.632812 341.507812 173.148438 341.265625 170.667969 C 341.019531 168.1875 340.714844 165.714844 340.351562 163.25 C 339.984375 160.785156 339.558594 158.332031 339.070312 155.886719 C 338.585938 153.445312 338.039062 151.015625 337.433594 148.597656 C 336.828125 146.179688 336.164062 143.78125 335.441406 141.394531 C 334.714844 139.011719 333.933594 136.648438 333.09375 134.300781 C 332.253906 131.953125 331.359375 129.632812 330.40625 127.328125 C 329.453125 125.027344 328.441406 122.75 327.375 120.496094 C 326.3125 118.246094 325.191406 116.019531 324.015625 113.824219 C 322.84375 111.625 321.613281 109.457031 320.332031 107.320312 C 319.050781 105.183594 317.71875 103.082031 316.335938 101.007812 C 314.949219 98.9375 313.515625 96.902344 312.03125 94.898438 C 310.546875 92.898438 309.015625 90.933594 307.433594 89.007812 C 305.855469 87.082031 304.226562 85.195312 302.554688 83.351562 C 300.878906 81.503906 299.164062 79.699219 297.402344 77.9375 C 295.640625 76.175781 293.835938 74.457031 291.988281 72.785156 C 290.144531 71.113281 288.257812 69.484375 286.332031 67.90625 C 284.40625 66.324219 282.441406 64.792969 280.441406 63.308594 C 278.4375 61.824219 276.402344 60.386719 274.332031 59.003906 C 272.257812 57.621094 270.15625 56.289062 268.019531 55.007812 C 265.882812 53.726562 263.714844 52.496094 261.515625 51.324219 C 259.320312 50.148438 257.09375 49.027344 254.84375 47.960938 C 252.589844 46.898438 250.3125 45.886719 248.011719 44.933594 C 245.707031 43.980469 243.386719 43.082031 241.039062 42.246094 C 238.691406 41.40625 236.328125 40.625 233.945312 39.898438 C 231.558594 39.175781 229.160156 38.511719 226.742188 37.90625 C 224.324219 37.300781 221.894531 36.753906 219.449219 36.269531 C 217.007812 35.78125 214.554688 35.355469 212.089844 34.988281 C 209.625 34.625 207.152344 34.320312 204.671875 34.074219 C 202.191406 33.832031 199.707031 33.648438 197.21875 33.523438 C 194.730469 33.402344 192.242188 33.339844 189.75 33.339844 Z M 289.234375 160.183594 L 266.066406 249.441406 C 265.898438 250.082031 265.675781 250.707031 265.40625 251.3125 C 265.132812 251.917969 264.816406 252.5 264.449219 253.054688 C 264.082031 253.609375 263.671875 254.128906 263.21875 254.613281 C 262.769531 255.101562 262.277344 255.546875 261.753906 255.953125 C 261.226562 256.359375 260.671875 256.71875 260.085938 257.035156 C 259.5 257.347656 258.894531 257.613281 258.265625 257.828125 C 257.636719 258.042969 256.996094 258.207031 256.339844 258.316406 C 255.683594 258.425781 255.027344 258.480469 254.359375 258.480469 L 125.140625 258.480469 C 124.476562 258.476562 123.816406 258.421875 123.164062 258.3125 C 122.511719 258.203125 121.871094 258.042969 121.242188 257.828125 C 120.617188 257.613281 120.011719 257.347656 119.425781 257.03125 C 118.84375 256.71875 118.289062 256.355469 117.765625 255.949219 C 117.242188 255.542969 116.757812 255.097656 116.304688 254.609375 C 115.855469 254.125 115.449219 253.605469 115.082031 253.050781 C 114.71875 252.496094 114.402344 251.917969 114.132812 251.3125 C 113.867188 250.707031 113.648438 250.082031 113.480469 249.441406 L 90.265625 160.183594 C 89.980469 159.105469 89.847656 158.011719 89.867188 156.898438 C 89.882812 155.785156 90.050781 154.695312 90.371094 153.628906 C 90.691406 152.5625 91.148438 151.558594 91.746094 150.617188 C 92.34375 149.679688 93.054688 148.835938 93.886719 148.09375 C 94.714844 147.351562 95.628906 146.734375 96.628906 146.242188 C 97.628906 145.753906 98.675781 145.40625 99.769531 145.207031 C 100.867188 145.003906 101.96875 144.957031 103.078125 145.058594 C 104.183594 145.164062 105.257812 145.414062 106.296875 145.8125 L 144.742188 160.609375 C 145.136719 160.773438 145.539062 160.804688 145.953125 160.699219 C 146.367188 160.59375 146.710938 160.375 146.976562 160.039062 L 180.234375 117.363281 C 180.515625 117 180.816406 116.65625 181.132812 116.328125 C 181.453125 116 181.792969 115.691406 182.148438 115.40625 C 182.5 115.117188 182.871094 114.847656 183.257812 114.601562 C 183.640625 114.355469 184.039062 114.128906 184.453125 113.929688 C 184.863281 113.726562 185.285156 113.550781 185.714844 113.394531 C 186.144531 113.242188 186.585938 113.113281 187.03125 113.011719 C 187.476562 112.90625 187.925781 112.832031 188.382812 112.777344 C 188.835938 112.726562 189.292969 112.699219 189.75 112.699219 C 190.207031 112.699219 190.664062 112.726562 191.117188 112.777344 C 191.574219 112.832031 192.023438 112.90625 192.46875 113.011719 C 192.914062 113.113281 193.355469 113.242188 193.785156 113.394531 C 194.214844 113.550781 194.636719 113.726562 195.046875 113.929688 C 195.460938 114.128906 195.859375 114.355469 196.242188 114.601562 C 196.628906 114.847656 197 115.117188 197.351562 115.40625 C 197.707031 115.691406 198.046875 116 198.367188 116.328125 C 198.683594 116.65625 198.984375 117 199.265625 117.363281 L 232.570312 160.039062 C 232.835938 160.375 233.175781 160.597656 233.59375 160.703125 C 234.007812 160.808594 234.410156 160.777344 234.804688 160.609375 L 273.25 145.8125 C 274.285156 145.4375 275.355469 145.203125 276.457031 145.117188 C 277.558594 145.027344 278.648438 145.089844 279.734375 145.300781 C 280.820312 145.507812 281.855469 145.859375 282.84375 146.351562 C 283.832031 146.84375 284.738281 147.457031 285.558594 148.195312 C 286.378906 148.933594 287.085938 149.769531 287.679688 150.699219 C 288.277344 151.632812 288.734375 152.625 289.058594 153.679688 C 289.382812 154.734375 289.558594 155.816406 289.589844 156.917969 C 289.621094 158.023438 289.5 159.109375 289.234375 160.183594 Z M 289.234375 160.183594 " fill-opacity="1" fill-rule="nonzero"/></g></svg>