<svg xmlns="http://www.w3.org/2000/svg" xmlns:xlink="http://www.w3.org/1999/xlink" width="500" zoomAndPan="magnify" viewBox="0 0 375 374.999991" height="500" preserveAspectRatio="xMidYMid meet" version="1.0"><defs><clipPath id="88a85614c7"><path d="M 61 50.855469 L 347.976562 50.855469 L 347.976562 300 L 61 300 Z M 61 50.855469 " clip-rule="nonzero"/></clipPath></defs><path fill="#010101" d="M 233.320312 253.804688 L 232.378906 253.566406 C 228.839844 252.65625 225.367188 251.480469 221.996094 250.097656 C 220.242188 249.390625 218.152344 248.648438 215.792969 247.910156 C 205.714844 244.777344 194.722656 243.195312 183.128906 243.195312 C 172.171875 243.195312 161.722656 244.609375 152.015625 247.4375 C 142.742188 250.132812 139.84375 252.859375 131.890625 252.859375 C 123.933594 252.859375 121 250.164062 111.765625 247.4375 C 102.089844 244.640625 91.640625 243.195312 80.683594 243.195312 C 69.089844 243.195312 58.097656 244.777344 47.984375 247.910156 C 45.1875 248.785156 42.828125 249.660156 40.875 250.46875 C 37.804688 251.75 34.636719 252.726562 31.402344 253.566406 L 30.421875 253.804688 C 28.433594 254.273438 27.085938 256.058594 27.085938 258.046875 L 27.085938 265.085938 C 27.085938 266.667969 27.929688 268.117188 29.277344 268.890625 L 33.320312 271.214844 C 35.378906 272.394531 36.625 274.582031 36.625 276.941406 C 36.59375 299.539062 53.378906 319.339844 75.898438 321.429688 C 101.753906 323.855469 123.5625 303.546875 123.5625 278.21875 C 123.5625 277.714844 123.5625 277.242188 123.53125 276.738281 C 123.359375 271.921875 127.238281 267.847656 132.058594 267.914062 C 132.328125 267.914062 132.597656 267.914062 132.867188 267.949219 C 137.214844 268.25 140.351562 272.324219 140.183594 276.636719 C 140.183594 276.773438 140.183594 276.90625 140.183594 277.042969 C 139.574219 299.640625 157.035156 319.339844 179.554688 321.394531 C 205.34375 323.789062 227.085938 303.480469 227.085938 278.1875 L 227.085938 278.152344 C 227.085938 275.019531 228.738281 272.125 231.46875 270.574219 L 234.433594 268.855469 C 235.78125 268.082031 236.625 266.632812 236.625 265.050781 L 236.625 258.046875 C 236.625 256.058594 235.277344 254.273438 233.320312 253.804688 Z M 233.320312 253.804688 " fill-opacity="1" fill-rule="nonzero"/><g clip-path="url(#88a85614c7)"><path fill="#010101" d="M 345.507812 147.511719 C 343.585938 144.648438 340.351562 142.933594 336.84375 142.933594 L 267.539062 142.933594 C 259.851562 103.15625 242.421875 50.855469 204.5 50.855469 C 166.542969 50.855469 149.214844 103.125 141.464844 142.933594 L 72.15625 142.933594 C 68.71875 142.933594 65.480469 144.648438 63.492188 147.511719 C 61.570312 150.441406 61.199219 154.078125 62.515625 157.28125 L 91.269531 227.9375 C 99.933594 228.578125 108.257812 230.09375 116.148438 232.382812 C 119.957031 233.496094 122.820312 234.570312 125.148438 235.449219 C 128.820312 236.863281 129.632812 237.132812 131.890625 237.132812 C 134.183594 237.132812 135.023438 236.863281 138.699219 235.449219 C 140.992188 234.570312 143.890625 233.460938 147.699219 232.382812 C 158.789062 229.148438 170.6875 227.535156 183.195312 227.535156 C 196.308594 227.535156 208.847656 229.351562 220.511719 232.921875 C 223.074219 233.765625 225.570312 234.640625 227.894531 235.582031 C 231.03125 236.796875 233.761719 237.738281 236.324219 238.410156 L 237.300781 238.613281 C 246.199219 240.871094 252.402344 248.886719 252.402344 258.046875 L 252.402344 265.085938 C 252.402344 272.089844 248.695312 278.625 242.726562 282.226562 C 242.324219 288.222656 241.007812 294.015625 238.917969 299.472656 L 254.625 299.472656 C 275.324219 299.472656 293.730469 287.144531 301.515625 267.980469 L 346.554688 157.28125 C 347.867188 154.113281 347.496094 150.441406 345.507812 147.511719 Z M 224.558594 198.535156 L 184.476562 198.535156 C 178.710938 198.535156 174.027344 193.820312 174.027344 188.09375 C 174.027344 182.304688 178.746094 177.65625 184.476562 177.65625 L 224.558594 177.65625 C 230.320312 177.65625 235.007812 182.304688 235.007812 188.09375 C 235.007812 193.855469 230.320312 198.535156 224.558594 198.535156 Z M 168.328125 142.933594 C 175.644531 108.816406 188.351562 76.988281 204.5 76.988281 C 220.648438 76.988281 233.355469 108.847656 240.738281 142.933594 Z M 168.328125 142.933594 " fill-opacity="1" fill-rule="nonzero"/></g></svg>