<svg xmlns="http://www.w3.org/2000/svg" xmlns:xlink="http://www.w3.org/1999/xlink" width="500" zoomAndPan="magnify" viewBox="0 0 375 374.999991" height="500" preserveAspectRatio="xMidYMid meet" version="1.0"><defs><clipPath id="5fe334fa78"><path d="M 135 35.214844 L 237 35.214844 L 237 95 L 135 95 Z M 135 35.214844 " clip-rule="nonzero"/></clipPath><clipPath id="f79774c395"><path d="M 324 125 L 337.5 125 L 337.5 142 L 324 142 Z M 324 125 " clip-rule="nonzero"/></clipPath><clipPath id="bdbe99d4d3"><path d="M 39.75 77 L 337.5 77 L 337.5 327 L 39.75 327 Z M 39.75 77 " clip-rule="nonzero"/></clipPath><clipPath id="8040fab2e0"><path d="M 204 318 L 305 318 L 305 337.464844 L 204 337.464844 Z M 204 318 " clip-rule="nonzero"/></clipPath></defs><path fill="#000000" d="M 121.296875 273.53125 L 121.296875 262.941406 C 187.335938 262.941406 208.375 234.644531 226.9375 209.679688 C 240.992188 190.773438 254.273438 172.917969 283.820312 172.917969 L 283.820312 183.511719 C 259.59375 183.511719 248.929688 197.84375 235.433594 216.003906 C 216.378906 241.632812 192.664062 273.53125 121.296875 273.53125 Z M 121.296875 273.53125 " fill-opacity="1" fill-rule="nonzero"/><path fill="#000000" d="M 127.902344 294.714844 L 127.859375 294.714844 C 119.886719 294.714844 114.347656 287.046875 114.347656 280.167969 C 114.347656 247.996094 144.453125 230.410156 158.917969 221.960938 C 160.484375 221.054688 162.242188 220.578125 164.015625 220.578125 C 167.167969 220.589844 170.023438 222.015625 171.875 224.484375 C 179.378906 234.53125 187.589844 239.558594 200.222656 241.871094 L 198.320312 252.285156 C 183.386719 249.558594 172.703125 243.082031 163.757812 231.308594 C 151.167969 238.753906 124.9375 254.242188 124.9375 280.167969 C 124.9375 281.65625 126.289062 284.125 127.832031 284.125 L 127.890625 284.125 C 173.136719 284.125 197.285156 278.433594 211.222656 264.496094 C 217.324219 258.386719 243.136719 226.496094 251.992188 213.707031 L 260.699219 219.738281 C 251.398438 233.164062 225.207031 265.488281 218.707031 271.984375 C 202.351562 288.34375 176.875 294.71875 127.890625 294.71875 Z M 127.902344 294.714844 " fill-opacity="1" fill-rule="nonzero"/><path fill="#000000" d="M 267.929688 278.832031 L 257.339844 278.832031 C 251.613281 278.832031 246.757812 273.984375 246.75 268.25 C 246.710938 250.445312 245.074219 240.484375 241.085938 233.859375 L 250.15625 228.394531 C 256.074219 238.21875 257.3125 251.425781 257.339844 268.230469 L 267.929688 268.242188 C 267.929688 229.375 272.652344 208.75 275.773438 195.101562 C 277.371094 188.113281 278.527344 183.070312 278.527344 178.21875 C 278.527344 168.253906 278.527344 157.949219 275.972656 150.789062 C 274.902344 147.800781 271.847656 146.457031 269.296875 146.445312 C 267.886719 146.273438 266.894531 146.730469 265.820312 147.300781 C 246.234375 157.664062 234.492188 182.359375 230.917969 220.722656 L 220.367188 219.742188 C 224.304688 177.601562 237.925781 150.082031 260.859375 137.949219 C 263.449219 136.578125 266.425781 135.910156 269.324219 135.859375 C 276.835938 135.886719 283.519531 140.453125 285.941406 147.234375 C 289.121094 156.128906 289.121094 167.363281 289.121094 178.222656 C 289.121094 184.277344 287.792969 190.097656 286.105469 197.464844 C 283.09375 210.648438 278.535156 230.574219 278.527344 268.246094 C 278.527344 274.082031 273.773438 278.835938 267.9375 278.835938 Z M 267.929688 278.832031 " fill-opacity="1" fill-rule="nonzero"/><path fill="#000000" d="M 104.660156 215.195312 L 94.128906 214.058594 L 104.261719 120.335938 L 304.574219 104.09375 L 305.433594 114.652344 L 113.851562 130.183594 Z M 104.660156 215.195312 " fill-opacity="1" fill-rule="nonzero"/><path fill="#000000" d="M 91.832031 235.355469 L 92.84375 225.992188 L 103.375 227.128906 L 102.363281 236.492188 Z M 91.832031 235.355469 " fill-opacity="1" fill-rule="nonzero"/><path fill="#000000" d="M 89.578125 256.199219 L 90.527344 247.390625 L 101.058594 248.527344 L 100.105469 257.339844 Z M 89.578125 256.199219 " fill-opacity="1" fill-rule="nonzero"/><path fill="#000000" d="M 87.25 277.722656 L 88.261719 268.332031 L 98.792969 269.46875 L 97.777344 278.859375 Z M 87.25 277.722656 " fill-opacity="1" fill-rule="nonzero"/><path fill="#000000" d="M 82.609375 320.632812 L 85.945312 289.765625 L 96.476562 290.902344 L 93.136719 321.773438 Z M 82.609375 320.632812 " fill-opacity="1" fill-rule="nonzero"/><path fill="#000000" d="M 78.832031 102.527344 L 86.324219 95.039062 L 112.800781 121.515625 L 105.3125 129.003906 Z M 78.832031 102.527344 " fill-opacity="1" fill-rule="nonzero"/><path fill="#000000" d="M 167.308594 120.96875 L 156.71875 120.96875 L 156.71875 88.195312 C 156.71875 84.082031 157.945312 80.054688 160.269531 76.558594 L 163.910156 71.101562 C 167.542969 65.652344 173.367188 62.238281 179.90625 61.730469 L 231.640625 56.496094 C 232.363281 56.445312 232.914062 56.421875 233.464844 56.421875 C 240.628906 56.421875 247.023438 59.859375 251.023438 65.855469 L 253.78125 70 C 256.113281 73.5 257.339844 77.558594 257.339844 81.746094 L 257.339844 113.664062 L 246.75 113.664062 L 246.75 81.746094 C 246.75 79.652344 246.132812 77.621094 244.964844 75.863281 L 242.210938 71.726562 C 239.984375 68.390625 236.59375 66.769531 232.554688 67.039062 L 180.855469 72.277344 C 177.460938 72.542969 174.542969 74.25 172.730469 76.976562 L 169.09375 82.429688 C 167.914062 84.203125 167.316406 86.140625 167.316406 88.195312 L 167.316406 120.96875 Z M 167.308594 120.96875 " fill-opacity="1" fill-rule="nonzero"/><g clip-path="url(#5fe334fa78)"><path fill="#000000" d="M 146.128906 94.058594 L 135.535156 94.058594 L 135.535156 67.007812 C 135.535156 62.816406 136.765625 58.757812 139.089844 55.265625 L 142.730469 49.808594 C 146.359375 44.363281 152.1875 40.945312 158.722656 40.441406 L 210.46875 35.3125 C 211.183594 35.261719 211.742188 35.242188 212.296875 35.242188 C 219.34375 35.242188 225.902344 38.765625 229.835938 44.675781 L 232.59375 48.816406 C 234.921875 52.320312 236.152344 56.378906 236.152344 60.5625 L 236.152344 86.761719 L 225.558594 86.761719 L 225.558594 60.5625 C 225.558594 58.472656 224.941406 56.4375 223.777344 54.683594 L 221.023438 50.546875 C 218.851562 47.28125 215.304688 45.601562 211.359375 45.859375 L 159.652344 50.988281 C 156.273438 51.25 153.351562 52.957031 151.542969 55.683594 L 147.90625 61.136719 C 146.742188 62.882812 146.128906 64.914062 146.128906 67.011719 L 146.128906 94.066406 Z M 146.128906 94.058594 " fill-opacity="1" fill-rule="nonzero"/></g><g clip-path="url(#f79774c395)"><path fill="#000000" d="M 324.730469 126.761719 L 335.21875 125.304688 L 337.242188 139.859375 L 326.75 141.316406 Z M 324.730469 126.761719 " fill-opacity="1" fill-rule="nonzero"/></g><path fill="#000000" d="M 321.023438 100.109375 L 331.515625 98.652344 L 333.558594 113.355469 L 323.066406 114.8125 Z M 321.023438 100.109375 " fill-opacity="1" fill-rule="nonzero"/><g clip-path="url(#bdbe99d4d3)"><path fill="#000000" d="M 85.871094 326.679688 L 39.746094 280.554688 L 78.1875 93.824219 L 161.585938 87.066406 L 162.441406 97.621094 L 86.960938 103.742188 L 51.265625 277.101562 L 89.871094 315.707031 L 325.472656 295.214844 L 300.003906 111.859375 L 276.511719 88.371094 L 189.675781 95.414062 L 188.816406 84.855469 L 280.539062 77.417969 L 310.003906 106.886719 L 337.5 304.804688 Z M 85.871094 326.679688 " fill-opacity="1" fill-rule="nonzero"/></g><g clip-path="url(#8040fab2e0)"><path fill="#000000" d="M 204.507812 326.925781 L 303.894531 318.25 L 304.816406 328.800781 L 205.429688 337.476562 Z M 204.507812 326.925781 " fill-opacity="1" fill-rule="nonzero"/></g><path fill="#000000" d="M 315.710938 317.242188 L 330.296875 315.96875 L 331.214844 326.519531 L 316.632812 327.792969 Z M 315.710938 317.242188 " fill-opacity="1" fill-rule="nonzero"/></svg>