<svg xmlns="http://www.w3.org/2000/svg" xmlns:xlink="http://www.w3.org/1999/xlink" width="500" zoomAndPan="magnify" viewBox="0 0 375 374.999991" height="500" preserveAspectRatio="xMidYMid meet" version="1.0"><path fill="#000000" d="M 175.859375 313.339844 C 168.175781 309.828125 159.019531 295.835938 150.808594 265.375 C 142.394531 235.332031 132.550781 207.816406 116.691406 181.738281 C 113.957031 178.964844 111.4375 177.003906 108.703125 177.640625 L 98.5625 179.367188 C 94.589844 180.304688 92.289062 182.199219 92.296875 185.417969 C 90.054688 225.058594 88.726562 264.566406 91.222656 303.613281 L 89.714844 305.5625 L 85.605469 305.777344 C 77.464844 305.839844 77.957031 304.808594 76.320312 304.050781 C 77.488281 281.441406 75.53125 258.328125 73.078125 235.117188 C 69.769531 200.695312 60.898438 167.878906 45.675781 136.875 C 44.976562 134.71875 45.546875 133.757812 46.144531 132.941406 C 37.347656 110.535156 59.523438 71.15625 87.160156 53.984375 C 88.214844 52.847656 88.777344 52.230469 89.257812 51.679688 C 88.742188 47.050781 178.816406 175.449219 172.199219 170.714844 C 180.363281 186.421875 185.84375 202.121094 190.984375 217.828125 C 198.988281 233.210938 213.914062 240.445312 237.839844 237.0625 C 252.304688 236.191406 266.769531 247.867188 280.804688 253.914062 C 306.613281 264.6875 330.90625 275.144531 338.894531 282.226562 C 343.210938 287.839844 342.558594 293.683594 338.894531 297.785156 C 338.082031 300.933594 335.933594 302.746094 332.839844 303.613281 C 304.9375 312.09375 275.023438 315.886719 245.175781 319.828125 C 209.28125 322.582031 187.863281 319.761719 175.886719 313.367188 Z M 175.859375 313.339844 " fill-opacity="1" fill-rule="evenodd"/></svg>