<svg xmlns="http://www.w3.org/2000/svg" xmlns:xlink="http://www.w3.org/1999/xlink" width="500" zoomAndPan="magnify" viewBox="0 0 375 374.999991" height="500" preserveAspectRatio="xMidYMid meet" version="1.0"><defs><clipPath id="bb16f468f7"><path d="M 18.085938 80 L 366 80 L 366 275.808594 L 18.085938 275.808594 Z M 18.085938 80 " clip-rule="nonzero"/></clipPath></defs><g clip-path="url(#bb16f468f7)"><path fill="#000000" d="M 194.109375 109.9375 C 198.800781 106.449219 202.992188 106.164062 206.972656 109.011719 C 210.597656 111.644531 211.804688 115.84375 210.167969 121.113281 C 211.023438 121.679688 212.015625 122.320312 212.871094 122.960938 C 218.199219 119.117188 222.109375 118.621094 225.804688 121.113281 C 229.640625 123.675781 230.992188 127.589844 229.855469 133 C 230.921875 133.566406 231.988281 134.136719 233.125 134.777344 C 235.609375 132.5 238.453125 131.289062 241.792969 131.859375 C 246.625 132.644531 249.964844 136.769531 250.109375 141.824219 C 250.109375 142.464844 250.535156 143.535156 251.03125 143.746094 C 252.3125 144.246094 253.304688 145.8125 255.152344 144.601562 C 261.476562 140.472656 269.011719 143.816406 270.289062 151.148438 C 270.503906 152.503906 271.285156 152.929688 272.351562 153.355469 C 291.824219 160.6875 311.222656 168.089844 330.695312 175.421875 C 340.855469 179.265625 350.09375 184.605469 357.199219 193.074219 C 360.96875 197.628906 364.023438 202.683594 364.164062 208.664062 C 364.308594 215.355469 366.085938 221.976562 364.734375 228.808594 C 363.027344 237.707031 358.621094 244.964844 352.511719 251.371094 C 341.070312 263.257812 327 270.378906 311.007812 273.582031 C 304.542969 274.863281 297.863281 275.503906 291.324219 275.503906 C 205.976562 275.644531 120.699219 275.574219 35.351562 275.574219 C 34.003906 275.574219 32.652344 275.644531 31.300781 275.429688 C 24.265625 274.363281 19.648438 270.164062 18.9375 262.691406 C 18.226562 255.289062 18.085938 247.8125 18.296875 240.339844 C 18.792969 221.761719 20.640625 203.324219 23.484375 185.03125 C 26.96875 162.679688 32.792969 141.042969 41.960938 120.398438 C 43.3125 117.410156 44.875 114.492188 46.792969 111.859375 C 50.0625 107.375 54.964844 106.660156 59.515625 109.792969 C 63.566406 112.570312 66.550781 116.414062 69.320312 120.328125 C 72.945312 125.523438 77.28125 129.9375 83.25 132.429688 C 90.570312 135.417969 97.890625 134.636719 105.066406 132.214844 C 114.730469 129.011719 123.1875 123.390625 131.21875 117.339844 C 132.566406 116.34375 133.777344 115.132812 135.199219 114.277344 C 137.117188 113.140625 137.046875 111.714844 136.761719 109.792969 C 135.980469 104.027344 135.410156 98.191406 134.914062 92.355469 C 134.769531 90.929688 135.125 89.4375 135.554688 88.011719 C 137.117188 81.960938 141.734375 79.472656 147.632812 81.320312 C 152.535156 82.816406 156.515625 85.804688 160.355469 88.9375 C 161.347656 89.722656 161.988281 89.933594 163.195312 89.292969 C 165.257812 88.226562 167.390625 88.582031 169.238281 89.792969 C 171.296875 91.214844 173.289062 92.78125 175.136719 94.417969 C 175.988281 95.203125 176.628906 95.414062 177.835938 94.917969 C 181.53125 93.207031 185.15625 93.707031 188.28125 96.339844 C 191.410156 98.902344 192.332031 102.390625 191.410156 106.234375 C 191.195312 107.300781 191.265625 107.941406 192.191406 108.511719 C 192.832031 108.867188 193.398438 109.367188 194.109375 109.9375 Z M 127.808594 129.296875 C 131.148438 131.148438 134.769531 133.210938 138.394531 135.277344 C 160.992188 147.945312 183.664062 160.332031 207.46875 170.511719 C 221.539062 176.5625 235.753906 182.183594 251.101562 183.964844 C 259.347656 184.890625 267.519531 185.03125 273.773438 177.984375 C 274.980469 176.632812 277.253906 176.847656 278.460938 178.054688 C 279.8125 179.335938 280.027344 181.257812 278.886719 182.753906 C 278.179688 183.679688 277.394531 184.535156 276.542969 185.316406 C 271.144531 190.085938 264.605469 191.367188 257.710938 191.4375 C 249.324219 191.507812 241.152344 189.800781 233.050781 187.453125 C 215.003906 182.257812 197.945312 174.78125 181.316406 166.167969 C 161.277344 155.777344 141.523438 144.816406 121.625 134.066406 C 120.488281 133.425781 119.632812 133.496094 118.496094 133.996094 C 114.945312 135.703125 111.460938 137.410156 107.765625 138.691406 C 100.660156 141.328125 93.339844 142.253906 85.808594 140.613281 C 76.214844 138.621094 69.320312 132.570312 63.707031 124.8125 C 61.859375 122.25 59.871094 119.757812 57.738281 117.480469 C 54.539062 114.136719 53.117188 114.277344 51.058594 118.335938 C 48.429688 123.601562 46.082031 129.082031 43.953125 134.566406 C 42.175781 139.050781 40.753906 143.746094 39.261719 148.160156 C 39.546875 148.445312 39.546875 148.515625 39.617188 148.515625 C 40.183594 148.730469 40.683594 148.871094 41.25 149.085938 C 48.996094 152.003906 54.328125 157.269531 57.3125 164.957031 C 58.804688 168.800781 59.015625 172.859375 59.015625 176.917969 C 58.945312 183.324219 63.636719 188.023438 70.03125 188.023438 C 73.085938 188.023438 76.070312 188.023438 79.128906 188.023438 C 91.136719 188.023438 101.726562 196.351562 104.496094 208.09375 C 104.996094 210.300781 105.207031 212.648438 105.28125 215 C 105.351562 220.90625 105.28125 226.816406 105.28125 232.867188 C 164.902344 232.867188 224.3125 232.867188 283.933594 232.867188 C 283.933594 232.082031 283.933594 231.371094 283.933594 230.660156 C 283.933594 219.910156 283.863281 209.164062 283.933594 198.414062 C 284.003906 190.582031 286.777344 183.75 292.746094 178.625 C 295.519531 176.207031 298.859375 174.496094 301.769531 172.574219 C 291.039062 168.375 279.8125 163.960938 268.511719 159.550781 C 267.164062 162.824219 265.8125 166.097656 264.460938 169.371094 C 262.6875 173.714844 258.421875 176.207031 254.160156 175.492188 C 247.40625 174.355469 243.855469 168.160156 246.339844 161.753906 C 247.691406 158.339844 249.113281 154.992188 250.535156 151.503906 C 249.46875 151.007812 248.542969 150.582031 247.691406 150.152344 C 247.476562 150.4375 247.40625 150.4375 247.40625 150.507812 C 245.914062 154.210938 244.421875 157.910156 242.859375 161.542969 C 240.726562 166.667969 235.539062 169.160156 230.636719 167.59375 C 225.304688 165.882812 222.535156 160.117188 224.523438 154.636719 C 226.160156 150.152344 228.007812 145.667969 229.855469 141.113281 C 228.929688 140.613281 228.007812 140.117188 227.082031 139.617188 C 225.234375 144.175781 223.53125 148.445312 221.753906 152.714844 C 219.480469 158.125 214.007812 160.6875 208.890625 158.625 C 203.703125 156.558594 201.429688 150.792969 203.632812 145.242188 C 205.054688 141.613281 206.546875 137.980469 208.039062 134.351562 C 208.675781 132.785156 209.246094 131.148438 209.886719 129.511719 C 208.960938 128.941406 208.179688 128.515625 207.328125 127.945312 C 206.972656 128.800781 206.6875 129.367188 206.402344 130.007812 C 204.484375 134.636719 202.636719 139.332031 200.789062 143.960938 C 198.800781 148.730469 193.96875 151.222656 189.207031 149.867188 C 183.378906 148.230469 180.394531 142.394531 182.597656 136.628906 C 184.871094 130.722656 187.359375 124.8125 189.703125 118.90625 C 190.769531 116.199219 190.769531 116.199219 188.140625 114.5625 C 187.855469 115.203125 187.570312 115.84375 187.289062 116.484375 C 184.871094 122.394531 182.527344 128.300781 180.039062 134.136719 C 179.328125 135.703125 178.261719 137.339844 176.910156 138.410156 C 173.570312 141.183594 168.8125 141.253906 165.46875 138.835938 C 161.703125 136.128906 160.140625 131.574219 161.847656 127.234375 C 164.476562 120.398438 167.316406 113.636719 170.019531 106.875 C 172.363281 101.109375 172.292969 101.179688 167.460938 97.125 C 166.109375 95.984375 165.257812 95.914062 163.976562 97.265625 C 160 101.394531 156.019531 105.59375 151.753906 109.296875 C 143.9375 116.128906 135.90625 122.605469 127.808594 129.296875 Z M 25.261719 240.269531 C 25.261719 245.039062 25.191406 249.59375 25.332031 254.148438 C 25.402344 256.996094 25.617188 259.84375 26.183594 262.546875 C 27.039062 266.535156 29.097656 268.027344 33.078125 268.171875 C 33.789062 268.171875 34.5 268.171875 35.210938 268.171875 C 120.984375 268.171875 206.757812 268.171875 292.53125 268.171875 C 301.273438 268.171875 309.800781 266.890625 318.117188 264.183594 C 332.257812 259.488281 344.339844 251.800781 352.9375 239.34375 C 355.78125 235.285156 357.414062 230.730469 357.984375 225.535156 C 357.484375 225.890625 357.199219 226.03125 356.917969 226.316406 C 353.363281 229.589844 349.242188 231.867188 344.835938 233.71875 C 333.609375 238.417969 321.738281 240.269531 309.660156 240.269531 C 215.925781 240.339844 122.191406 240.269531 28.460938 240.269531 C 27.535156 240.269531 26.613281 240.269531 25.261719 240.269531 Z M 37.128906 155.632812 C 30.023438 180.972656 27.464844 206.882812 25.6875 232.9375 C 49.992188 232.9375 73.941406 232.9375 97.960938 232.9375 C 98.03125 232.4375 98.101562 232.011719 98.101562 231.511719 C 98.101562 225.746094 98.246094 220.054688 98.101562 214.289062 C 97.816406 203.46875 89.574219 195.425781 78.773438 195.28125 C 75.71875 195.210938 72.730469 195.28125 69.675781 195.28125 C 61.289062 195.210938 54.183594 189.730469 52.335938 181.542969 C 51.699219 178.554688 51.769531 175.421875 51.625 172.363281 C 51.199219 164.675781 44.660156 156.988281 37.128906 155.632812 Z M 291.183594 233.007812 C 297.578125 233.007812 303.691406 233.007812 309.800781 233.007812 C 316.980469 233.007812 324.015625 232.226562 330.980469 230.585938 C 337.941406 228.949219 344.695312 226.671875 350.449219 222.257812 C 355.566406 218.273438 358.480469 213.289062 356.632812 206.671875 C 355.921875 204.039062 354.570312 201.476562 353.007812 199.269531 C 346.898438 190.867188 338.296875 186.027344 328.917969 182.328125 C 323.089844 180.050781 317.191406 178.554688 310.796875 178.839844 C 299.640625 179.265625 291.183594 187.382812 291.183594 198.628906 C 291.183594 209.375 291.183594 220.125 291.183594 230.871094 C 291.183594 231.511719 291.183594 232.152344 291.183594 233.007812 Z M 184.800781 103.246094 C 184.089844 102.605469 183.378906 101.535156 182.382812 101.179688 C 180.960938 100.683594 179.96875 101.609375 179.398438 102.960938 C 175.847656 111.714844 172.292969 120.472656 168.8125 129.226562 C 168.027344 131.148438 168.597656 132.644531 170.160156 133.285156 C 171.582031 133.851562 172.859375 133.070312 173.644531 131.148438 C 177.125 122.605469 180.605469 113.992188 184.019531 105.453125 C 184.300781 104.953125 184.445312 104.382812 184.800781 103.246094 Z M 204.128906 116.484375 C 203.417969 115.84375 202.707031 114.777344 201.785156 114.421875 C 200.292969 113.851562 199.226562 114.847656 198.65625 116.269531 C 195.601562 123.816406 192.546875 131.363281 189.492188 138.90625 C 188.78125 140.6875 189.347656 142.253906 190.699219 142.820312 C 192.191406 143.460938 193.539062 142.75 194.324219 140.898438 C 197.378906 133.496094 200.363281 126.023438 203.347656 118.621094 C 203.632812 118.121094 203.773438 117.625 204.128906 116.484375 Z M 156.730469 94.632812 C 152.964844 92.355469 149.625 90.21875 146.140625 88.441406 C 143.726562 87.230469 142.730469 87.941406 142.375 90.644531 C 141.59375 96.128906 142.589844 101.464844 143.582031 107.230469 C 147.988281 103.03125 152.109375 99.046875 156.730469 94.632812 Z M 223.53125 128.871094 C 222.820312 128.230469 222.039062 127.089844 221.113281 126.734375 C 219.621094 126.308594 218.625 127.375 218.058594 128.726562 C 215.570312 134.992188 213.011719 141.253906 210.523438 147.519531 C 209.671875 149.726562 210.097656 151.292969 211.734375 151.933594 C 213.15625 152.429688 214.433594 151.578125 215.285156 149.582031 C 217.773438 143.390625 220.261719 137.199219 222.820312 131.003906 C 223.03125 130.507812 223.175781 129.9375 223.53125 128.871094 Z M 234.472656 160.832031 C 234.898438 160.332031 235.964844 159.476562 236.390625 158.480469 C 237.742188 155.5625 238.808594 152.574219 240.015625 149.582031 C 240.941406 147.234375 241.933594 144.957031 242.859375 142.609375 C 243.429688 141.042969 242.789062 139.761719 241.367188 139.121094 C 240.015625 138.480469 238.667969 139.050781 238.167969 140.402344 C 235.824219 146.097656 233.550781 151.789062 231.347656 157.554688 C 230.636719 159.191406 231.988281 160.902344 234.472656 160.832031 Z M 263.679688 152.144531 C 262.96875 151.503906 262.1875 150.4375 261.265625 150.082031 C 259.984375 149.65625 258.917969 150.507812 258.421875 151.789062 C 256.714844 155.917969 254.941406 160.117188 253.304688 164.246094 C 252.523438 166.167969 253.09375 167.59375 254.65625 168.234375 C 256.148438 168.875 257.355469 168.160156 258.136719 166.238281 C 259.773438 162.253906 261.40625 158.269531 263.042969 154.28125 C 263.183594 153.710938 263.324219 153.144531 263.679688 152.144531 Z M 263.679688 152.144531 " fill-opacity="1" fill-rule="nonzero"/></g></svg>