<svg xmlns="http://www.w3.org/2000/svg" xmlns:xlink="http://www.w3.org/1999/xlink" width="500" zoomAndPan="magnify" viewBox="0 0 375 374.999991" height="500" preserveAspectRatio="xMidYMid meet" version="1.0"><defs><clipPath id="92c411bac8"><path d="M 32.585938 83.625 L 230 83.625 L 230 266 L 32.585938 266 Z M 32.585938 83.625 " clip-rule="nonzero"/></clipPath><clipPath id="e165ec0488"><path d="M 297 231 L 337.835938 231 L 337.835938 295.125 L 297 295.125 Z M 297 231 " clip-rule="nonzero"/></clipPath></defs><g clip-path="url(#92c411bac8)"><path fill="#100f0d" d="M 122.972656 212.960938 C 122.964844 208.460938 126.5625 204.789062 131.042969 204.691406 C 135.523438 204.789062 139.132812 208.460938 139.117188 212.960938 C 139.109375 217.464844 135.507812 221.105469 131.042969 221.207031 C 126.578125 221.105469 122.980469 217.464844 122.972656 212.960938 Z M 32.824219 128.695312 L 32.761719 128.695312 L 32.945312 214.191406 C 32.953125 221.289062 37.515625 225.773438 44.582031 225.757812 L 44.628906 225.757812 C 70.140625 225.71875 116.863281 225.613281 118.308594 225.613281 L 118.277344 244.214844 C 116.839844 244.214844 115.410156 244.214844 113.980469 244.214844 L 111.816406 244.214844 C 108.222656 244.214844 104.644531 244.199219 101.066406 244.148438 L 101.027344 244.148438 C 99.652344 244.132812 98.933594 244.589844 98.269531 245.746094 C 95.753906 250.082031 93.113281 254.34375 90.539062 258.636719 C 88.703125 261.703125 90.789062 265.40625 94.4375 265.429688 L 167.652344 265.429688 C 171.296875 265.40625 173.386719 261.703125 171.550781 258.636719 C 168.972656 254.34375 166.34375 250.082031 163.820312 245.746094 C 163.15625 244.589844 162.4375 244.132812 161.070312 244.148438 L 161.023438 244.148438 C 157.445312 244.199219 153.867188 244.214844 150.273438 244.214844 L 148.109375 244.214844 C 146.679688 244.214844 145.25 244.214844 143.8125 244.214844 L 143.789062 225.613281 C 144.777344 225.613281 166.757812 225.511719 188.988281 225.550781 L 188.988281 200.34375 L 43.832031 200.496094 C 43.402344 199.917969 43.902344 98.910156 43.910156 94.617188 L 218.1875 94.617188 C 218.1875 97.019531 218.347656 129.828125 218.410156 158.292969 L 229.265625 158.292969 L 229.328125 128.695312 L 229.273438 128.695312 L 229.328125 97.027344 C 229.335938 95.695312 229.183594 94.425781 228.875 93.210938 C 227.667969 87.175781 223.035156 83.601562 216.308594 83.625 L 75.859375 83.664062 L 75.859375 83.65625 L 45.78125 83.625 C 39.054688 83.601562 34.421875 87.175781 33.210938 93.210938 C 32.90625 94.425781 32.753906 95.695312 32.761719 97.027344 L 32.824219 128.695312 " fill-opacity="1" fill-rule="nonzero"/></g><path fill="#100f0d" d="M 245.367188 257.574219 L 245.414062 257.59375 L 245.414062 255.40625 C 245.375 255.421875 245.507812 255.332031 245.972656 255.332031 L 252.5 255.332031 C 252.96875 255.332031 253.097656 255.421875 253.097656 255.429688 L 253.058594 257.59375 C 253.058594 257.59375 253.066406 257.59375 253.066406 257.59375 C 253.074219 257.59375 252.929688 257.664062 252.5 257.664062 L 245.972656 257.664062 C 245.507812 257.664062 245.375 257.574219 245.367188 257.574219 Z M 184.855469 255.222656 C 183.324219 257.695312 182.933594 260.011719 183.722656 261.941406 C 184.496094 263.828125 186.351562 265.183594 189.089844 265.839844 C 191.207031 266.363281 193.460938 266.371094 195.441406 266.371094 C 205.199219 266.390625 215.054688 266.390625 224.785156 266.390625 L 262.929688 266.390625 C 271.445312 266.390625 279.972656 266.390625 288.488281 266.386719 L 288.488281 257.664062 L 261.730469 257.664062 L 261.730469 252.828125 C 261.730469 251.199219 260.40625 249.875 258.777344 249.875 L 239.808594 249.875 C 238.179688 249.875 236.859375 251.199219 236.859375 252.828125 L 236.859375 257.632812 L 193.410156 257.632812 C 194.519531 255.835938 195.640625 254.023438 196.734375 252.253906 L 197.0625 251.71875 C 199.402344 247.949219 201.820312 244.039062 204.160156 240.175781 C 204.535156 239.566406 204.886719 239.535156 206.03125 239.558594 L 224.925781 239.558594 C 245.757812 239.558594 267.265625 239.558594 288.488281 239.527344 L 288.488281 237.4375 C 288.488281 235.855469 288.742188 234.316406 289.207031 232.863281 L 205.398438 232.863281 C 205.398438 232.863281 205.398438 232.855469 205.398438 232.855469 L 205.382812 213.332031 C 205.382812 201.621094 205.375 189.550781 205.34375 177.664062 C 205.34375 176.636719 205.535156 175.925781 205.917969 175.542969 C 206.507812 174.957031 207.851562 174.871094 209.082031 174.871094 C 226.828125 174.902344 244.816406 174.902344 262.25 174.902344 L 289.359375 174.902344 C 293.0625 174.902344 293.128906 174.976562 293.128906 178.742188 C 293.144531 196.511719 293.144531 212.253906 293.121094 226.742188 C 295.285156 224.808594 298.054688 223.585938 301.042969 223.253906 C 301.21875 223.242188 301.410156 223.242188 301.59375 223.226562 C 301.625 211.460938 301.617188 199.625 301.609375 188.9375 L 301.601562 178.542969 C 301.601562 174.351562 300.652344 171.351562 298.695312 169.371094 C 296.738281 167.390625 293.765625 166.417969 289.613281 166.417969 C 264.511719 166.402344 238.152344 166.402344 209.019531 166.417969 C 204.703125 166.417969 201.765625 167.367188 199.785156 169.394531 C 197.820312 171.40625 196.902344 174.382812 196.894531 178.773438 L 196.894531 189.070312 C 196.886719 203.433594 196.878906 218.285156 196.933594 232.894531 C 196.949219 235.019531 196.445312 236.75 195.3125 238.507812 C 192.046875 243.574219 188.828125 248.789062 185.71875 253.824219 L 184.855469 255.222656 " fill-opacity="1" fill-rule="nonzero"/><g clip-path="url(#e165ec0488)"><path fill="#100f0d" d="M 301.339844 239.871094 L 333.148438 239.871094 L 333.148438 285.480469 L 301.339844 285.480469 Z M 315.203125 290.207031 C 315.203125 289.082031 316.121094 288.171875 317.242188 288.171875 C 318.367188 288.171875 319.285156 289.082031 319.285156 290.207031 C 319.285156 291.332031 318.367188 292.25 317.242188 292.25 C 316.121094 292.25 315.203125 291.332031 315.203125 290.207031 Z M 320.699219 235.738281 C 320.699219 236.105469 320.410156 236.40625 320.042969 236.40625 L 314.445312 236.40625 C 314.078125 236.40625 313.78125 236.105469 313.78125 235.738281 C 313.78125 235.378906 314.078125 235.082031 314.445312 235.082031 L 320.042969 235.082031 C 320.410156 235.082031 320.699219 235.378906 320.699219 235.738281 Z M 297.023438 260.515625 L 297.023438 261.144531 C 297.023438 270.601562 297.023438 280.054688 297.023438 289.503906 C 297.023438 289.832031 297.027344 290.175781 297.089844 290.519531 C 297.496094 292.800781 299.023438 294.453125 301.195312 294.957031 L 301.203125 294.964844 L 301.378906 295.003906 C 301.738281 295.078125 302.136719 295.117188 302.535156 295.117188 C 306.753906 295.125 310.976562 295.125 315.195312 295.125 C 316.5625 295.125 317.925781 295.125 319.292969 295.125 C 323.511719 295.125 327.726562 295.125 331.945312 295.117188 C 332.351562 295.117188 332.75 295.078125 333.125 295.003906 L 333.285156 294.957031 C 335.457031 294.453125 336.992188 292.800781 337.398438 290.519531 C 337.457031 290.175781 337.464844 289.832031 337.464844 289.503906 L 337.464844 237.4375 C 337.464844 235.902344 337 234.554688 336.105469 233.527344 L 336.019531 233.445312 C 335.148438 232.488281 333.933594 231.890625 332.511719 231.738281 C 332.265625 231.707031 332.007812 231.699219 331.738281 231.699219 L 317.046875 231.691406 L 302.75 231.699219 C 302.480469 231.699219 302.21875 231.707031 301.96875 231.738281 C 300.554688 231.890625 299.339844 232.488281 298.457031 233.453125 L 298.414062 233.5 C 297.503906 234.523438 297.023438 235.886719 297.023438 237.4375 L 297.023438 260.515625 " fill-opacity="1" fill-rule="nonzero"/></g></svg>