<svg xmlns="http://www.w3.org/2000/svg" xmlns:xlink="http://www.w3.org/1999/xlink" width="500" zoomAndPan="magnify" viewBox="0 0 375 374.999991" height="500" preserveAspectRatio="xMidYMid meet" version="1.0"><defs><clipPath id="82d7a20b27"><path d="M 34.835938 47.625 L 337.835938 47.625 L 337.835938 329.625 L 34.835938 329.625 Z M 34.835938 47.625 " clip-rule="nonzero"/></clipPath></defs><g clip-path="url(#82d7a20b27)"><path fill="#100f0d" d="M 312.472656 319.554688 L 282.199219 319.554688 C 273.84375 319.554688 267.0625 312.785156 267.0625 304.445312 L 267.0625 299.410156 L 327.609375 299.410156 L 327.609375 304.445312 C 327.609375 312.785156 320.832031 319.554688 312.472656 319.554688 Z M 224.292969 269.195312 L 166.152344 269.195312 L 166.152344 228.910156 L 208.152344 228.910156 Z M 156.0625 304.445312 C 156.0625 312.785156 149.28125 319.554688 140.925781 319.554688 L 60.195312 319.554688 C 51.839844 319.554688 45.058594 312.785156 45.058594 304.445312 L 45.058594 183.589844 C 45.058594 175.25 51.839844 168.480469 60.195312 168.480469 L 140.925781 168.480469 C 149.28125 168.480469 156.0625 175.25 156.0625 183.589844 Z M 80.378906 57.695312 L 292.292969 57.695312 C 300.648438 57.695312 307.429688 64.464844 307.429688 72.804688 L 307.429688 178.554688 L 165.640625 178.554688 C 163.292969 167.066406 153.105469 158.410156 140.925781 158.410156 L 65.242188 158.410156 L 65.242188 72.804688 C 65.242188 64.464844 72.019531 57.695312 80.378906 57.695312 Z M 186.335938 218.839844 L 166.152344 218.839844 L 166.152344 188.625 L 307.429688 188.625 L 307.429688 198.695312 L 282.199219 198.695312 C 270.019531 198.695312 259.832031 207.351562 257.484375 218.839844 Z M 327.609375 223.875 L 327.609375 289.339844 L 267.0625 289.339844 L 267.0625 223.875 C 267.0625 215.535156 273.84375 208.769531 282.199219 208.769531 L 312.472656 208.769531 C 320.832031 208.769531 327.609375 215.535156 327.609375 223.875 Z M 317.519531 199.207031 L 317.519531 72.804688 C 317.519531 58.917969 306.207031 47.625 292.292969 47.625 L 80.378906 47.625 C 66.464844 47.625 55.148438 58.917969 55.148438 72.804688 L 55.148438 158.921875 C 43.640625 161.261719 34.96875 171.433594 34.96875 183.589844 L 34.96875 304.445312 C 34.96875 318.332031 46.28125 329.625 60.195312 329.625 L 140.925781 329.625 C 154.839844 329.625 166.152344 318.332031 166.152344 304.445312 L 166.152344 279.269531 L 231.746094 279.269531 C 233.417969 279.269531 234.976562 278.441406 235.921875 277.046875 C 236.867188 275.667969 237.046875 273.917969 236.433594 272.363281 L 219.011719 228.910156 L 256.972656 228.910156 L 256.972656 304.445312 C 256.972656 318.332031 268.285156 329.625 282.199219 329.625 L 312.472656 329.625 C 326.386719 329.625 337.703125 318.332031 337.703125 304.445312 L 337.703125 223.875 C 337.703125 211.71875 329.027344 201.546875 317.519531 199.207031 " fill-opacity="1" fill-rule="nonzero"/></g><path fill="#100f0d" d="M 186.335938 208.769531 C 183.554688 208.769531 181.289062 206.503906 181.289062 203.730469 C 181.289062 200.957031 183.554688 198.695312 186.335938 198.695312 C 189.113281 198.695312 191.378906 200.957031 191.378906 203.730469 C 191.378906 206.503906 189.113281 208.769531 186.335938 208.769531 Z M 201.472656 203.730469 C 201.472656 195.390625 194.691406 188.625 186.335938 188.625 C 177.976562 188.625 171.199219 195.390625 171.199219 203.730469 C 171.199219 212.074219 177.976562 218.839844 186.335938 218.839844 C 194.691406 218.839844 201.472656 212.074219 201.472656 203.730469 " fill-opacity="1" fill-rule="nonzero"/><path fill="#100f0d" d="M 272.109375 77.839844 L 287.246094 77.839844 L 287.246094 92.945312 C 287.246094 95.71875 289.511719 97.980469 292.292969 97.980469 C 295.070312 97.980469 297.335938 95.71875 297.335938 92.945312 L 297.335938 77.839844 C 297.335938 72.292969 292.804688 67.769531 287.246094 67.769531 L 272.109375 67.769531 C 269.332031 67.769531 267.0625 70.03125 267.0625 72.804688 C 267.0625 75.578125 269.332031 77.839844 272.109375 77.839844 " fill-opacity="1" fill-rule="nonzero"/><path fill="#100f0d" d="M 302.382812 304.445312 L 292.292969 304.445312 C 289.511719 304.445312 287.246094 306.707031 287.246094 309.480469 C 287.246094 312.253906 289.511719 314.519531 292.292969 314.519531 L 302.382812 314.519531 C 305.160156 314.519531 307.429688 312.253906 307.429688 309.480469 C 307.429688 306.707031 305.160156 304.445312 302.382812 304.445312 " fill-opacity="1" fill-rule="nonzero"/><path fill="#100f0d" d="M 302.382812 213.804688 L 292.292969 213.804688 C 289.511719 213.804688 287.246094 216.066406 287.246094 218.839844 C 287.246094 221.613281 289.511719 223.875 292.292969 223.875 L 302.382812 223.875 C 305.160156 223.875 307.429688 221.613281 307.429688 218.839844 C 307.429688 216.066406 305.160156 213.804688 302.382812 213.804688 " fill-opacity="1" fill-rule="nonzero"/><path fill="#100f0d" d="M 100.558594 304.445312 C 97.78125 304.445312 95.515625 302.183594 95.515625 299.410156 C 95.515625 296.636719 97.78125 294.375 100.558594 294.375 C 103.339844 294.375 105.605469 296.636719 105.605469 299.410156 C 105.605469 302.183594 103.339844 304.445312 100.558594 304.445312 Z M 100.558594 284.304688 C 92.203125 284.304688 85.421875 291.070312 85.421875 299.410156 C 85.421875 307.75 92.203125 314.519531 100.558594 314.519531 C 108.917969 314.519531 115.695312 307.75 115.695312 299.410156 C 115.695312 291.070312 108.917969 284.304688 100.558594 284.304688 " fill-opacity="1" fill-rule="nonzero"/><path fill="#100f0d" d="M 95.515625 183.589844 L 105.605469 183.589844 C 108.382812 183.589844 110.652344 181.328125 110.652344 178.554688 C 110.652344 175.78125 108.382812 173.519531 105.605469 173.519531 L 95.515625 173.519531 C 92.734375 173.519531 90.46875 175.78125 90.46875 178.554688 C 90.46875 181.328125 92.734375 183.589844 95.515625 183.589844 " fill-opacity="1" fill-rule="nonzero"/><path fill="#100f0d" d="M 141.792969 113.953125 C 142.992188 113.953125 144.214844 113.523438 145.183594 112.636719 L 146.382812 111.554688 C 169.523438 92.296875 203.148438 92.296875 226.128906 111.398438 L 227.488281 112.636719 C 229.539062 114.503906 232.730469 114.367188 234.601562 112.300781 C 236.476562 110.238281 236.316406 107.050781 234.265625 105.179688 L 232.75 103.804688 C 205.847656 81.4375 166.824219 81.4375 139.761719 103.960938 L 138.382812 105.203125 C 136.332031 107.070312 136.175781 110.257812 138.066406 112.300781 C 139.050781 113.402344 140.433594 113.953125 141.792969 113.953125 " fill-opacity="1" fill-rule="nonzero"/><path fill="#100f0d" d="M 165.757812 134.765625 C 163.609375 136.535156 163.332031 139.703125 165.109375 141.847656 C 166.902344 143.992188 170.074219 144.285156 172.222656 142.496094 C 180.402344 135.691406 192.265625 135.691406 200.445312 142.496094 C 201.390625 143.285156 202.535156 143.65625 203.679688 143.65625 C 205.117188 143.65625 206.554688 143.046875 207.5625 141.847656 C 209.335938 139.703125 209.058594 136.535156 206.910156 134.765625 C 194.988281 124.832031 177.683594 124.832031 165.757812 134.765625 " fill-opacity="1" fill-rule="nonzero"/><path fill="#100f0d" d="M 220.175781 119.601562 C 210.28125 111.359375 198.277344 107.246094 186.335938 107.207031 C 174.390625 107.246094 162.386719 111.359375 152.492188 119.601562 C 150.582031 121.507812 150.523438 124.558594 152.335938 126.542969 C 153.339844 127.644531 154.679688 128.195312 156.0625 128.195312 C 157.203125 128.195312 158.367188 127.804688 159.292969 127.015625 C 167.136719 120.503906 176.757812 117.238281 186.335938 117.21875 C 195.914062 117.238281 205.53125 120.503906 213.375 127.015625 C 214.300781 127.804688 215.464844 128.195312 216.609375 128.195312 C 217.988281 128.195312 219.328125 127.644531 220.332031 126.542969 C 222.144531 124.558594 222.085938 121.507812 220.175781 119.601562 " fill-opacity="1" fill-rule="nonzero"/></svg>